ISO-10303-21;
HEADER;
/* Generated by software containing ST-Developer
 * from STEP Tools, Inc. (www.steptools.com) 
 */
/* OPTION: using custom renumber hook */

FILE_DESCRIPTION(
/* description */ ('STEP AP242',
'CAx-IF Rec.Pracs.---Representation and Presentation of Product Manufa
cturing Information (PMI)---4.0---2014-10-13',
'CAx-IF Rec.Pracs.---3D Tessellated Geometry---0.4---2014-09-14','2;1',
'CAx-IF Rec.Pracs.---User Defined Attributes---1.5---2016-08-15'),
/* implementation_level */ '2;1');

FILE_NAME(
/* name */ '6913461e6c6f546fcc16572f',
/* time_stamp */ '2025-11-11T14:20:15Z',
/* author */ (''),
/* organization */ (''),
/* preprocessor_version */ 'ST-DEVELOPER v20',
/* originating_system */ 'ONSHAPE BY PTC INC, 1.206',
/* authorisation */ '  ');

FILE_SCHEMA (('AP242_MANAGED_MODEL_BASED_3D_ENGINEERING_MIM_LF { 1 0 10303 442 1 1 4 }'));
ENDSEC;

DATA;
#10=SHAPE_REPRESENTATION_RELATIONSHIP('','',#942,#11);
#11=ADVANCED_BREP_SHAPE_REPRESENTATION('',(#940),#1508);
#12=(
BOUNDED_SURFACE()
B_SPLINE_SURFACE(3,1,((#1386,#1387),(#1388,#1389),(#1390,#1391),(#1392,
#1393)),.CYLINDRICAL_SURF.,.F.,.F.,.F.)
B_SPLINE_SURFACE_WITH_KNOTS((4,4),(2,2),(0.,1.),(0.,1.),
 .PIECEWISE_BEZIER_KNOTS.)
GEOMETRIC_REPRESENTATION_ITEM()
RATIONAL_B_SPLINE_SURFACE(((1.,1.),(0.932329865418269,0.932329865418269),
(0.932329865418269,0.932329865418269),(1.,1.)))
REPRESENTATION_ITEM('')
SURFACE()
);
#13=(
BOUNDED_SURFACE()
B_SPLINE_SURFACE(3,1,((#1455,#1456),(#1457,#1458),(#1459,#1460),(#1461,
#1462)),.CYLINDRICAL_SURF.,.F.,.F.,.F.)
B_SPLINE_SURFACE_WITH_KNOTS((4,4),(2,2),(0.,1.),(0.,1.),
 .PIECEWISE_BEZIER_KNOTS.)
GEOMETRIC_REPRESENTATION_ITEM()
RATIONAL_B_SPLINE_SURFACE(((1.,1.),(0.708055585234755,0.708055585234755),
(0.708055585234755,0.708055585234755),(1.,1.)))
REPRESENTATION_ITEM('')
SURFACE()
);
#14=(
BOUNDED_SURFACE()
B_SPLINE_SURFACE(3,1,((#1463,#1464),(#1465,#1466),(#1467,#1468),(#1469,
#1470)),.CYLINDRICAL_SURF.,.F.,.F.,.F.)
B_SPLINE_SURFACE_WITH_KNOTS((4,4),(2,2),(0.,1.),(0.,1.),
 .PIECEWISE_BEZIER_KNOTS.)
GEOMETRIC_REPRESENTATION_ITEM()
RATIONAL_B_SPLINE_SURFACE(((1.,1.),(0.708055585234749,0.708055585234749),
(0.708055585234749,0.708055585234749),(1.,1.)))
REPRESENTATION_ITEM('')
SURFACE()
);
#15=CIRCLE('',#944,93.8224);
#16=CIRCLE('',#945,2.);
#17=CIRCLE('',#946,2.);
#18=CIRCLE('',#947,93.8224);
#19=CIRCLE('',#948,2.);
#20=CIRCLE('',#949,2.);
#21=CIRCLE('',#950,93.8224);
#22=CIRCLE('',#951,93.8224);
#23=ORIENTED_EDGE('',*,*,#285,.F.);
#24=ORIENTED_EDGE('',*,*,#286,.T.);
#25=ORIENTED_EDGE('',*,*,#287,.F.);
#26=ORIENTED_EDGE('',*,*,#288,.T.);
#27=ORIENTED_EDGE('',*,*,#289,.T.);
#28=ORIENTED_EDGE('',*,*,#290,.T.);
#29=ORIENTED_EDGE('',*,*,#291,.T.);
#30=ORIENTED_EDGE('',*,*,#292,.T.);
#31=ORIENTED_EDGE('',*,*,#293,.T.);
#32=ORIENTED_EDGE('',*,*,#294,.T.);
#33=ORIENTED_EDGE('',*,*,#295,.T.);
#34=ORIENTED_EDGE('',*,*,#296,.T.);
#35=ORIENTED_EDGE('',*,*,#297,.F.);
#36=ORIENTED_EDGE('',*,*,#298,.T.);
#37=ORIENTED_EDGE('',*,*,#299,.T.);
#38=ORIENTED_EDGE('',*,*,#300,.T.);
#39=ORIENTED_EDGE('',*,*,#301,.T.);
#40=ORIENTED_EDGE('',*,*,#302,.F.);
#41=ORIENTED_EDGE('',*,*,#303,.T.);
#42=ORIENTED_EDGE('',*,*,#304,.T.);
#43=ORIENTED_EDGE('',*,*,#305,.F.);
#44=ORIENTED_EDGE('',*,*,#306,.F.);
#45=ORIENTED_EDGE('',*,*,#307,.F.);
#46=ORIENTED_EDGE('',*,*,#308,.T.);
#47=ORIENTED_EDGE('',*,*,#309,.T.);
#48=ORIENTED_EDGE('',*,*,#310,.T.);
#49=ORIENTED_EDGE('',*,*,#311,.T.);
#50=ORIENTED_EDGE('',*,*,#312,.F.);
#51=ORIENTED_EDGE('',*,*,#313,.T.);
#52=ORIENTED_EDGE('',*,*,#314,.F.);
#53=ORIENTED_EDGE('',*,*,#315,.T.);
#54=ORIENTED_EDGE('',*,*,#316,.T.);
#55=ORIENTED_EDGE('',*,*,#317,.T.);
#56=ORIENTED_EDGE('',*,*,#318,.F.);
#57=ORIENTED_EDGE('',*,*,#319,.F.);
#58=ORIENTED_EDGE('',*,*,#320,.T.);
#59=ORIENTED_EDGE('',*,*,#300,.F.);
#60=ORIENTED_EDGE('',*,*,#321,.T.);
#61=ORIENTED_EDGE('',*,*,#322,.T.);
#62=ORIENTED_EDGE('',*,*,#323,.F.);
#63=ORIENTED_EDGE('',*,*,#306,.T.);
#64=ORIENTED_EDGE('',*,*,#324,.T.);
#65=ORIENTED_EDGE('',*,*,#325,.T.);
#66=ORIENTED_EDGE('',*,*,#326,.T.);
#67=ORIENTED_EDGE('',*,*,#327,.T.);
#68=ORIENTED_EDGE('',*,*,#328,.T.);
#69=ORIENTED_EDGE('',*,*,#329,.F.);
#70=ORIENTED_EDGE('',*,*,#330,.T.);
#71=ORIENTED_EDGE('',*,*,#331,.F.);
#72=ORIENTED_EDGE('',*,*,#332,.F.);
#73=ORIENTED_EDGE('',*,*,#333,.F.);
#74=ORIENTED_EDGE('',*,*,#334,.T.);
#75=ORIENTED_EDGE('',*,*,#335,.F.);
#76=ORIENTED_EDGE('',*,*,#332,.T.);
#77=ORIENTED_EDGE('',*,*,#336,.F.);
#78=ORIENTED_EDGE('',*,*,#337,.T.);
#79=ORIENTED_EDGE('',*,*,#338,.F.);
#80=ORIENTED_EDGE('',*,*,#339,.F.);
#81=ORIENTED_EDGE('',*,*,#340,.F.);
#82=ORIENTED_EDGE('',*,*,#341,.T.);
#83=ORIENTED_EDGE('',*,*,#342,.F.);
#84=ORIENTED_EDGE('',*,*,#339,.T.);
#85=ORIENTED_EDGE('',*,*,#309,.F.);
#86=ORIENTED_EDGE('',*,*,#343,.T.);
#87=ORIENTED_EDGE('',*,*,#344,.F.);
#88=ORIENTED_EDGE('',*,*,#345,.T.);
#89=ORIENTED_EDGE('',*,*,#346,.F.);
#90=ORIENTED_EDGE('',*,*,#347,.T.);
#91=ORIENTED_EDGE('',*,*,#348,.F.);
#92=ORIENTED_EDGE('',*,*,#349,.F.);
#93=ORIENTED_EDGE('',*,*,#350,.F.);
#94=ORIENTED_EDGE('',*,*,#351,.T.);
#95=ORIENTED_EDGE('',*,*,#352,.F.);
#96=ORIENTED_EDGE('',*,*,#349,.T.);
#97=ORIENTED_EDGE('',*,*,#353,.F.);
#98=ORIENTED_EDGE('',*,*,#354,.T.);
#99=ORIENTED_EDGE('',*,*,#355,.F.);
#100=ORIENTED_EDGE('',*,*,#356,.F.);
#101=ORIENTED_EDGE('',*,*,#357,.F.);
#102=ORIENTED_EDGE('',*,*,#358,.T.);
#103=ORIENTED_EDGE('',*,*,#359,.F.);
#104=ORIENTED_EDGE('',*,*,#356,.T.);
#105=ORIENTED_EDGE('',*,*,#360,.F.);
#106=ORIENTED_EDGE('',*,*,#361,.T.);
#107=ORIENTED_EDGE('',*,*,#362,.F.);
#108=ORIENTED_EDGE('',*,*,#363,.F.);
#109=ORIENTED_EDGE('',*,*,#364,.F.);
#110=ORIENTED_EDGE('',*,*,#365,.T.);
#111=ORIENTED_EDGE('',*,*,#366,.F.);
#112=ORIENTED_EDGE('',*,*,#363,.T.);
#113=ORIENTED_EDGE('',*,*,#367,.F.);
#114=ORIENTED_EDGE('',*,*,#368,.F.);
#115=ORIENTED_EDGE('',*,*,#303,.F.);
#116=ORIENTED_EDGE('',*,*,#369,.T.);
#117=ORIENTED_EDGE('',*,*,#370,.F.);
#118=ORIENTED_EDGE('',*,*,#371,.T.);
#119=ORIENTED_EDGE('',*,*,#322,.F.);
#120=ORIENTED_EDGE('',*,*,#372,.T.);
#121=ORIENTED_EDGE('',*,*,#327,.F.);
#122=ORIENTED_EDGE('',*,*,#373,.T.);
#123=ORIENTED_EDGE('',*,*,#285,.T.);
#124=ORIENTED_EDGE('',*,*,#374,.T.);
#125=ORIENTED_EDGE('',*,*,#319,.T.);
#126=ORIENTED_EDGE('',*,*,#375,.T.);
#127=ORIENTED_EDGE('',*,*,#376,.F.);
#128=ORIENTED_EDGE('',*,*,#367,.T.);
#129=ORIENTED_EDGE('',*,*,#377,.F.);
#130=ORIENTED_EDGE('',*,*,#360,.T.);
#131=ORIENTED_EDGE('',*,*,#366,.T.);
#132=ORIENTED_EDGE('',*,*,#378,.F.);
#133=ORIENTED_EDGE('',*,*,#336,.T.);
#134=ORIENTED_EDGE('',*,*,#342,.T.);
#135=ORIENTED_EDGE('',*,*,#379,.F.);
#136=ORIENTED_EDGE('',*,*,#329,.T.);
#137=ORIENTED_EDGE('',*,*,#335,.T.);
#138=ORIENTED_EDGE('',*,*,#380,.F.);
#139=ORIENTED_EDGE('',*,*,#353,.T.);
#140=ORIENTED_EDGE('',*,*,#359,.T.);
#141=ORIENTED_EDGE('',*,*,#381,.F.);
#142=ORIENTED_EDGE('',*,*,#346,.T.);
#143=ORIENTED_EDGE('',*,*,#352,.T.);
#144=ORIENTED_EDGE('',*,*,#382,.F.);
#145=ORIENTED_EDGE('',*,*,#344,.T.);
#146=ORIENTED_EDGE('',*,*,#333,.T.);
#147=ORIENTED_EDGE('',*,*,#331,.T.);
#148=ORIENTED_EDGE('',*,*,#383,.F.);
#149=ORIENTED_EDGE('',*,*,#340,.T.);
#150=ORIENTED_EDGE('',*,*,#338,.T.);
#151=ORIENTED_EDGE('',*,*,#384,.F.);
#152=ORIENTED_EDGE('',*,*,#350,.T.);
#153=ORIENTED_EDGE('',*,*,#348,.T.);
#154=ORIENTED_EDGE('',*,*,#385,.F.);
#155=ORIENTED_EDGE('',*,*,#357,.T.);
#156=ORIENTED_EDGE('',*,*,#355,.T.);
#157=ORIENTED_EDGE('',*,*,#386,.F.);
#158=ORIENTED_EDGE('',*,*,#387,.T.);
#159=ORIENTED_EDGE('',*,*,#310,.F.);
#160=ORIENTED_EDGE('',*,*,#388,.F.);
#161=ORIENTED_EDGE('',*,*,#290,.F.);
#162=ORIENTED_EDGE('',*,*,#388,.T.);
#163=ORIENTED_EDGE('',*,*,#345,.F.);
#164=ORIENTED_EDGE('',*,*,#382,.T.);
#165=ORIENTED_EDGE('',*,*,#351,.F.);
#166=ORIENTED_EDGE('',*,*,#385,.T.);
#167=ORIENTED_EDGE('',*,*,#347,.F.);
#168=ORIENTED_EDGE('',*,*,#381,.T.);
#169=ORIENTED_EDGE('',*,*,#358,.F.);
#170=ORIENTED_EDGE('',*,*,#386,.T.);
#171=ORIENTED_EDGE('',*,*,#354,.F.);
#172=ORIENTED_EDGE('',*,*,#380,.T.);
#173=ORIENTED_EDGE('',*,*,#334,.F.);
#174=ORIENTED_EDGE('',*,*,#383,.T.);
#175=ORIENTED_EDGE('',*,*,#330,.F.);
#176=ORIENTED_EDGE('',*,*,#379,.T.);
#177=ORIENTED_EDGE('',*,*,#341,.F.);
#178=ORIENTED_EDGE('',*,*,#384,.T.);
#179=ORIENTED_EDGE('',*,*,#337,.F.);
#180=ORIENTED_EDGE('',*,*,#378,.T.);
#181=ORIENTED_EDGE('',*,*,#365,.F.);
#182=ORIENTED_EDGE('',*,*,#389,.T.);
#183=ORIENTED_EDGE('',*,*,#361,.F.);
#184=ORIENTED_EDGE('',*,*,#377,.T.);
#185=ORIENTED_EDGE('',*,*,#369,.F.);
#186=ORIENTED_EDGE('',*,*,#390,.F.);
#187=ORIENTED_EDGE('',*,*,#291,.F.);
#188=ORIENTED_EDGE('',*,*,#390,.T.);
#189=ORIENTED_EDGE('',*,*,#318,.T.);
#190=ORIENTED_EDGE('',*,*,#391,.F.);
#191=ORIENTED_EDGE('',*,*,#292,.F.);
#192=ORIENTED_EDGE('',*,*,#317,.F.);
#193=ORIENTED_EDGE('',*,*,#392,.T.);
#194=ORIENTED_EDGE('',*,*,#393,.F.);
#195=ORIENTED_EDGE('',*,*,#394,.F.);
#196=ORIENTED_EDGE('',*,*,#293,.F.);
#197=ORIENTED_EDGE('',*,*,#391,.T.);
#198=ORIENTED_EDGE('',*,*,#314,.T.);
#199=ORIENTED_EDGE('',*,*,#395,.T.);
#200=ORIENTED_EDGE('',*,*,#396,.F.);
#201=ORIENTED_EDGE('',*,*,#397,.F.);
#202=ORIENTED_EDGE('',*,*,#294,.F.);
#203=ORIENTED_EDGE('',*,*,#394,.T.);
#204=ORIENTED_EDGE('',*,*,#398,.F.);
#205=ORIENTED_EDGE('',*,*,#399,.T.);
#206=ORIENTED_EDGE('',*,*,#400,.F.);
#207=ORIENTED_EDGE('',*,*,#401,.T.);
#208=ORIENTED_EDGE('',*,*,#311,.F.);
#209=ORIENTED_EDGE('',*,*,#387,.F.);
#210=ORIENTED_EDGE('',*,*,#289,.F.);
#211=ORIENTED_EDGE('',*,*,#397,.T.);
#212=ORIENTED_EDGE('',*,*,#364,.T.);
#213=ORIENTED_EDGE('',*,*,#362,.T.);
#214=ORIENTED_EDGE('',*,*,#389,.F.);
#215=ORIENTED_EDGE('',*,*,#396,.T.);
#216=ORIENTED_EDGE('',*,*,#402,.F.);
#217=ORIENTED_EDGE('',*,*,#403,.T.);
#218=ORIENTED_EDGE('',*,*,#400,.T.);
#219=ORIENTED_EDGE('',*,*,#403,.F.);
#220=ORIENTED_EDGE('',*,*,#404,.T.);
#221=ORIENTED_EDGE('',*,*,#312,.T.);
#222=ORIENTED_EDGE('',*,*,#401,.F.);
#223=ORIENTED_EDGE('',*,*,#313,.F.);
#224=ORIENTED_EDGE('',*,*,#404,.F.);
#225=ORIENTED_EDGE('',*,*,#402,.T.);
#226=ORIENTED_EDGE('',*,*,#395,.F.);
#227=ORIENTED_EDGE('',*,*,#316,.F.);
#228=ORIENTED_EDGE('',*,*,#405,.F.);
#229=ORIENTED_EDGE('',*,*,#406,.T.);
#230=ORIENTED_EDGE('',*,*,#392,.F.);
#231=ORIENTED_EDGE('',*,*,#407,.T.);
#232=ORIENTED_EDGE('',*,*,#405,.T.);
#233=ORIENTED_EDGE('',*,*,#315,.F.);
#234=ORIENTED_EDGE('',*,*,#399,.F.);
#235=ORIENTED_EDGE('',*,*,#393,.T.);
#236=ORIENTED_EDGE('',*,*,#406,.F.);
#237=ORIENTED_EDGE('',*,*,#407,.F.);
#238=ORIENTED_EDGE('',*,*,#398,.T.);
#239=ORIENTED_EDGE('',*,*,#323,.T.);
#240=ORIENTED_EDGE('',*,*,#371,.F.);
#241=ORIENTED_EDGE('',*,*,#408,.F.);
#242=ORIENTED_EDGE('',*,*,#307,.T.);
#243=ORIENTED_EDGE('',*,*,#409,.T.);
#244=ORIENTED_EDGE('',*,*,#375,.F.);
#245=ORIENTED_EDGE('',*,*,#324,.F.);
#246=ORIENTED_EDGE('',*,*,#305,.T.);
#247=ORIENTED_EDGE('',*,*,#372,.F.);
#248=ORIENTED_EDGE('',*,*,#321,.F.);
#249=ORIENTED_EDGE('',*,*,#299,.F.);
#250=ORIENTED_EDGE('',*,*,#328,.F.);
#251=ORIENTED_EDGE('',*,*,#374,.F.);
#252=ORIENTED_EDGE('',*,*,#288,.F.);
#253=ORIENTED_EDGE('',*,*,#301,.F.);
#254=ORIENTED_EDGE('',*,*,#320,.F.);
#255=ORIENTED_EDGE('',*,*,#410,.F.);
#256=ORIENTED_EDGE('',*,*,#411,.F.);
#257=ORIENTED_EDGE('',*,*,#302,.T.);
#258=ORIENTED_EDGE('',*,*,#287,.T.);
#259=ORIENTED_EDGE('',*,*,#411,.T.);
#260=ORIENTED_EDGE('',*,*,#412,.T.);
#261=ORIENTED_EDGE('',*,*,#295,.F.);
#262=ORIENTED_EDGE('',*,*,#413,.F.);
#263=ORIENTED_EDGE('',*,*,#325,.F.);
#264=ORIENTED_EDGE('',*,*,#298,.F.);
#265=ORIENTED_EDGE('',*,*,#414,.T.);
#266=ORIENTED_EDGE('',*,*,#297,.T.);
#267=ORIENTED_EDGE('',*,*,#415,.T.);
#268=ORIENTED_EDGE('',*,*,#414,.F.);
#269=ORIENTED_EDGE('',*,*,#413,.T.);
#270=ORIENTED_EDGE('',*,*,#415,.F.);
#271=ORIENTED_EDGE('',*,*,#296,.F.);
#272=ORIENTED_EDGE('',*,*,#412,.F.);
#273=ORIENTED_EDGE('',*,*,#410,.T.);
#274=ORIENTED_EDGE('',*,*,#286,.F.);
#275=ORIENTED_EDGE('',*,*,#373,.F.);
#276=ORIENTED_EDGE('',*,*,#326,.F.);
#277=ORIENTED_EDGE('',*,*,#368,.T.);
#278=ORIENTED_EDGE('',*,*,#376,.T.);
#279=ORIENTED_EDGE('',*,*,#409,.F.);
#280=ORIENTED_EDGE('',*,*,#304,.F.);
#281=ORIENTED_EDGE('',*,*,#408,.T.);
#282=ORIENTED_EDGE('',*,*,#370,.T.);
#283=ORIENTED_EDGE('',*,*,#343,.F.);
#284=ORIENTED_EDGE('',*,*,#308,.F.);
#285=EDGE_CURVE('',#416,#417,#502,.T.);
#286=EDGE_CURVE('',#416,#418,#503,.T.);
#287=EDGE_CURVE('',#419,#418,#504,.T.);
#288=EDGE_CURVE('',#419,#417,#505,.F.);
#289=EDGE_CURVE('',#420,#421,#506,.F.);
#290=EDGE_CURVE('',#421,#422,#507,.F.);
#291=EDGE_CURVE('',#422,#423,#508,.T.);
#292=EDGE_CURVE('',#423,#424,#509,.T.);
#293=EDGE_CURVE('',#424,#425,#510,.F.);
#294=EDGE_CURVE('',#425,#420,#15,.T.);
#295=EDGE_CURVE('',#426,#427,#511,.T.);
#296=EDGE_CURVE('',#427,#428,#512,.F.);
#297=EDGE_CURVE('',#429,#428,#513,.T.);
#298=EDGE_CURVE('',#429,#430,#514,.T.);
#299=EDGE_CURVE('',#430,#431,#16,.F.);
#300=EDGE_CURVE('',#431,#432,#515,.T.);
#301=EDGE_CURVE('',#432,#419,#17,.F.);
#302=EDGE_CURVE('',#426,#419,#516,.T.);
#303=EDGE_CURVE('',#433,#434,#517,.T.);
#304=EDGE_CURVE('',#434,#435,#518,.T.);
#305=EDGE_CURVE('',#436,#435,#519,.T.);
#306=EDGE_CURVE('',#437,#436,#520,.T.);
#307=EDGE_CURVE('',#438,#437,#521,.T.);
#308=EDGE_CURVE('',#438,#439,#522,.T.);
#309=EDGE_CURVE('',#439,#440,#523,.T.);
#310=EDGE_CURVE('',#440,#441,#524,.T.);
#311=EDGE_CURVE('',#441,#442,#525,.T.);
#312=EDGE_CURVE('',#443,#442,#526,.F.);
#313=EDGE_CURVE('',#443,#444,#527,.T.);
#314=EDGE_CURVE('',#445,#444,#18,.T.);
#315=EDGE_CURVE('',#445,#446,#528,.T.);
#316=EDGE_CURVE('',#446,#447,#529,.F.);
#317=EDGE_CURVE('',#447,#448,#530,.T.);
#318=EDGE_CURVE('',#433,#448,#531,.T.);
#319=EDGE_CURVE('',#449,#450,#532,.F.);
#320=EDGE_CURVE('',#449,#432,#533,.T.);
#321=EDGE_CURVE('',#431,#451,#534,.F.);
#322=EDGE_CURVE('',#451,#452,#535,.T.);
#323=EDGE_CURVE('',#437,#452,#536,.T.);
#324=EDGE_CURVE('',#436,#450,#537,.T.);
#325=EDGE_CURVE('',#430,#453,#538,.T.);
#326=EDGE_CURVE('',#453,#454,#539,.F.);
#327=EDGE_CURVE('',#454,#455,#540,.T.);
#328=EDGE_CURVE('',#455,#430,#541,.T.);
#329=EDGE_CURVE('',#456,#457,#542,.T.);
#330=EDGE_CURVE('',#456,#458,#543,.F.);
#331=EDGE_CURVE('',#459,#458,#544,.T.);
#332=EDGE_CURVE('',#457,#459,#545,.T.);
#333=EDGE_CURVE('',#460,#459,#546,.T.);
#334=EDGE_CURVE('',#460,#461,#547,.F.);
#335=EDGE_CURVE('',#457,#461,#548,.T.);
#336=EDGE_CURVE('',#462,#463,#549,.T.);
#337=EDGE_CURVE('',#462,#464,#550,.F.);
#338=EDGE_CURVE('',#465,#464,#551,.T.);
#339=EDGE_CURVE('',#463,#465,#552,.T.);
#340=EDGE_CURVE('',#466,#465,#553,.T.);
#341=EDGE_CURVE('',#466,#467,#554,.F.);
#342=EDGE_CURVE('',#463,#467,#555,.T.);
#343=EDGE_CURVE('',#439,#468,#556,.T.);
#344=EDGE_CURVE('',#469,#468,#557,.T.);
#345=EDGE_CURVE('',#469,#440,#558,.F.);
#346=EDGE_CURVE('',#470,#471,#559,.T.);
#347=EDGE_CURVE('',#470,#472,#560,.F.);
#348=EDGE_CURVE('',#473,#472,#561,.T.);
#349=EDGE_CURVE('',#471,#473,#562,.T.);
#350=EDGE_CURVE('',#474,#473,#563,.T.);
#351=EDGE_CURVE('',#474,#475,#564,.F.);
#352=EDGE_CURVE('',#471,#475,#565,.T.);
#353=EDGE_CURVE('',#476,#477,#566,.T.);
#354=EDGE_CURVE('',#476,#478,#567,.F.);
#355=EDGE_CURVE('',#479,#478,#568,.T.);
#356=EDGE_CURVE('',#477,#479,#569,.T.);
#357=EDGE_CURVE('',#480,#479,#570,.T.);
#358=EDGE_CURVE('',#480,#481,#571,.F.);
#359=EDGE_CURVE('',#477,#481,#572,.T.);
#360=EDGE_CURVE('',#482,#483,#573,.T.);
#361=EDGE_CURVE('',#482,#484,#574,.F.);
#362=EDGE_CURVE('',#485,#484,#575,.T.);
#363=EDGE_CURVE('',#483,#485,#576,.T.);
#364=EDGE_CURVE('',#486,#485,#577,.T.);
#365=EDGE_CURVE('',#486,#487,#578,.F.);
#366=EDGE_CURVE('',#483,#487,#579,.T.);
#367=EDGE_CURVE('',#488,#489,#580,.T.);
#368=EDGE_CURVE('',#434,#488,#581,.T.);
#369=EDGE_CURVE('',#433,#489,#582,.F.);
#370=EDGE_CURVE('',#490,#468,#583,.T.);
#371=EDGE_CURVE('',#490,#452,#584,.T.);
#372=EDGE_CURVE('',#451,#455,#19,.T.);
#373=EDGE_CURVE('',#454,#416,#585,.T.);
#374=EDGE_CURVE('',#417,#449,#20,.T.);
#375=EDGE_CURVE('',#450,#491,#586,.F.);
#376=EDGE_CURVE('',#488,#491,#587,.T.);
#377=EDGE_CURVE('',#482,#489,#588,.T.);
#378=EDGE_CURVE('',#462,#487,#589,.T.);
#379=EDGE_CURVE('',#456,#467,#590,.T.);
#380=EDGE_CURVE('',#476,#461,#591,.T.);
#381=EDGE_CURVE('',#470,#481,#592,.T.);
#382=EDGE_CURVE('',#469,#475,#593,.T.);
#383=EDGE_CURVE('',#460,#458,#594,.T.);
#384=EDGE_CURVE('',#466,#464,#595,.T.);
#385=EDGE_CURVE('',#474,#472,#596,.T.);
#386=EDGE_CURVE('',#480,#478,#597,.T.);
#387=EDGE_CURVE('',#421,#441,#598,.T.);
#388=EDGE_CURVE('',#422,#440,#599,.T.);
#389=EDGE_CURVE('',#486,#484,#600,.T.);
#390=EDGE_CURVE('',#423,#433,#601,.T.);
#391=EDGE_CURVE('',#424,#448,#602,.T.);
#392=EDGE_CURVE('',#447,#492,#603,.T.);
#393=EDGE_CURVE('',#493,#492,#604,.F.);
#394=EDGE_CURVE('',#425,#493,#605,.T.);
#395=EDGE_CURVE('',#444,#494,#606,.F.);
#396=EDGE_CURVE('',#495,#494,#21,.F.);
#397=EDGE_CURVE('',#420,#495,#607,.T.);
#398=EDGE_CURVE('',#496,#493,#22,.F.);
#399=EDGE_CURVE('',#496,#445,#608,.T.);
#400=EDGE_CURVE('',#497,#495,#609,.F.);
#401=EDGE_CURVE('',#497,#442,#610,.F.);
#402=EDGE_CURVE('',#498,#494,#611,.T.);
#403=EDGE_CURVE('',#498,#497,#612,.T.);
#404=EDGE_CURVE('',#498,#443,#613,.T.);
#405=EDGE_CURVE('',#499,#446,#614,.T.);
#406=EDGE_CURVE('',#499,#492,#615,.T.);
#407=EDGE_CURVE('',#496,#499,#616,.T.);
#408=EDGE_CURVE('',#438,#490,#617,.T.);
#409=EDGE_CURVE('',#435,#491,#618,.T.);
#410=EDGE_CURVE('',#500,#418,#619,.T.);
#411=EDGE_CURVE('',#426,#500,#620,.F.);
#412=EDGE_CURVE('',#500,#427,#621,.F.);
#413=EDGE_CURVE('',#453,#501,#622,.T.);
#414=EDGE_CURVE('',#429,#501,#623,.F.);
#415=EDGE_CURVE('',#428,#501,#624,.F.);
#416=VERTEX_POINT('',#1099);
#417=VERTEX_POINT('',#1100);
#418=VERTEX_POINT('',#1102);
#419=VERTEX_POINT('',#1104);
#420=VERTEX_POINT('',#1111);
#421=VERTEX_POINT('',#1112);
#422=VERTEX_POINT('',#1114);
#423=VERTEX_POINT('',#1116);
#424=VERTEX_POINT('',#1118);
#425=VERTEX_POINT('',#1120);
#426=VERTEX_POINT('',#1123);
#427=VERTEX_POINT('',#1124);
#428=VERTEX_POINT('',#1126);
#429=VERTEX_POINT('',#1128);
#430=VERTEX_POINT('',#1130);
#431=VERTEX_POINT('',#1132);
#432=VERTEX_POINT('',#1134);
#433=VERTEX_POINT('',#1142);
#434=VERTEX_POINT('',#1143);
#435=VERTEX_POINT('',#1145);
#436=VERTEX_POINT('',#1147);
#437=VERTEX_POINT('',#1149);
#438=VERTEX_POINT('',#1151);
#439=VERTEX_POINT('',#1153);
#440=VERTEX_POINT('',#1155);
#441=VERTEX_POINT('',#1157);
#442=VERTEX_POINT('',#1159);
#443=VERTEX_POINT('',#1161);
#444=VERTEX_POINT('',#1163);
#445=VERTEX_POINT('',#1165);
#446=VERTEX_POINT('',#1167);
#447=VERTEX_POINT('',#1169);
#448=VERTEX_POINT('',#1171);
#449=VERTEX_POINT('',#1178);
#450=VERTEX_POINT('',#1179);
#451=VERTEX_POINT('',#1182);
#452=VERTEX_POINT('',#1184);
#453=VERTEX_POINT('',#1192);
#454=VERTEX_POINT('',#1194);
#455=VERTEX_POINT('',#1196);
#456=VERTEX_POINT('',#1203);
#457=VERTEX_POINT('',#1204);
#458=VERTEX_POINT('',#1206);
#459=VERTEX_POINT('',#1208);
#460=VERTEX_POINT('',#1215);
#461=VERTEX_POINT('',#1217);
#462=VERTEX_POINT('',#1224);
#463=VERTEX_POINT('',#1225);
#464=VERTEX_POINT('',#1227);
#465=VERTEX_POINT('',#1229);
#466=VERTEX_POINT('',#1236);
#467=VERTEX_POINT('',#1238);
#468=VERTEX_POINT('',#1245);
#469=VERTEX_POINT('',#1247);
#470=VERTEX_POINT('',#1254);
#471=VERTEX_POINT('',#1255);
#472=VERTEX_POINT('',#1257);
#473=VERTEX_POINT('',#1259);
#474=VERTEX_POINT('',#1266);
#475=VERTEX_POINT('',#1268);
#476=VERTEX_POINT('',#1275);
#477=VERTEX_POINT('',#1276);
#478=VERTEX_POINT('',#1278);
#479=VERTEX_POINT('',#1280);
#480=VERTEX_POINT('',#1287);
#481=VERTEX_POINT('',#1289);
#482=VERTEX_POINT('',#1296);
#483=VERTEX_POINT('',#1297);
#484=VERTEX_POINT('',#1299);
#485=VERTEX_POINT('',#1301);
#486=VERTEX_POINT('',#1308);
#487=VERTEX_POINT('',#1310);
#488=VERTEX_POINT('',#1317);
#489=VERTEX_POINT('',#1318);
#490=VERTEX_POINT('',#1326);
#491=VERTEX_POINT('',#1332);
#492=VERTEX_POINT('',#1382);
#493=VERTEX_POINT('',#1384);
#494=VERTEX_POINT('',#1395);
#495=VERTEX_POINT('',#1397);
#496=VERTEX_POINT('',#1400);
#497=VERTEX_POINT('',#1407);
#498=VERTEX_POINT('',#1418);
#499=VERTEX_POINT('',#1434);
#500=VERTEX_POINT('',#1476);
#501=VERTEX_POINT('',#1488);
#502=LINE('',#1098,#625);
#503=LINE('',#1101,#626);
#504=LINE('',#1103,#627);
#505=LINE('',#1105,#628);
#506=LINE('',#1110,#629);
#507=LINE('',#1113,#630);
#508=LINE('',#1115,#631);
#509=LINE('',#1117,#632);
#510=LINE('',#1119,#633);
#511=LINE('',#1122,#634);
#512=LINE('',#1125,#635);
#513=LINE('',#1127,#636);
#514=LINE('',#1129,#637);
#515=LINE('',#1133,#638);
#516=LINE('',#1136,#639);
#517=LINE('',#1141,#640);
#518=LINE('',#1144,#641);
#519=LINE('',#1146,#642);
#520=LINE('',#1148,#643);
#521=LINE('',#1150,#644);
#522=LINE('',#1152,#645);
#523=LINE('',#1154,#646);
#524=LINE('',#1156,#647);
#525=LINE('',#1158,#648);
#526=LINE('',#1160,#649);
#527=LINE('',#1162,#650);
#528=LINE('',#1166,#651);
#529=LINE('',#1168,#652);
#530=LINE('',#1170,#653);
#531=LINE('',#1172,#654);
#532=LINE('',#1177,#655);
#533=LINE('',#1180,#656);
#534=LINE('',#1181,#657);
#535=LINE('',#1183,#658);
#536=LINE('',#1185,#659);
#537=LINE('',#1186,#660);
#538=LINE('',#1191,#661);
#539=LINE('',#1193,#662);
#540=LINE('',#1195,#663);
#541=LINE('',#1197,#664);
#542=LINE('',#1202,#665);
#543=LINE('',#1205,#666);
#544=LINE('',#1207,#667);
#545=LINE('',#1209,#668);
#546=LINE('',#1214,#669);
#547=LINE('',#1216,#670);
#548=LINE('',#1218,#671);
#549=LINE('',#1223,#672);
#550=LINE('',#1226,#673);
#551=LINE('',#1228,#674);
#552=LINE('',#1230,#675);
#553=LINE('',#1235,#676);
#554=LINE('',#1237,#677);
#555=LINE('',#1239,#678);
#556=LINE('',#1244,#679);
#557=LINE('',#1246,#680);
#558=LINE('',#1248,#681);
#559=LINE('',#1253,#682);
#560=LINE('',#1256,#683);
#561=LINE('',#1258,#684);
#562=LINE('',#1260,#685);
#563=LINE('',#1265,#686);
#564=LINE('',#1267,#687);
#565=LINE('',#1269,#688);
#566=LINE('',#1274,#689);
#567=LINE('',#1277,#690);
#568=LINE('',#1279,#691);
#569=LINE('',#1281,#692);
#570=LINE('',#1286,#693);
#571=LINE('',#1288,#694);
#572=LINE('',#1290,#695);
#573=LINE('',#1295,#696);
#574=LINE('',#1298,#697);
#575=LINE('',#1300,#698);
#576=LINE('',#1302,#699);
#577=LINE('',#1307,#700);
#578=LINE('',#1309,#701);
#579=LINE('',#1311,#702);
#580=LINE('',#1316,#703);
#581=LINE('',#1319,#704);
#582=LINE('',#1320,#705);
#583=LINE('',#1325,#706);
#584=LINE('',#1327,#707);
#585=LINE('',#1329,#708);
#586=LINE('',#1331,#709);
#587=LINE('',#1333,#710);
#588=LINE('',#1334,#711);
#589=LINE('',#1335,#712);
#590=LINE('',#1336,#713);
#591=LINE('',#1337,#714);
#592=LINE('',#1338,#715);
#593=LINE('',#1339,#716);
#594=LINE('',#1344,#717);
#595=LINE('',#1349,#718);
#596=LINE('',#1354,#719);
#597=LINE('',#1359,#720);
#598=LINE('',#1364,#721);
#599=LINE('',#1365,#722);
#600=LINE('',#1370,#723);
#601=LINE('',#1371,#724);
#602=LINE('',#1376,#725);
#603=LINE('',#1381,#726);
#604=LINE('',#1383,#727);
#605=LINE('',#1385,#728);
#606=LINE('',#1394,#729);
#607=LINE('',#1398,#730);
#608=LINE('',#1401,#731);
#609=LINE('',#1406,#732);
#610=LINE('',#1408,#733);
#611=LINE('',#1417,#734);
#612=LINE('',#1419,#735);
#613=LINE('',#1424,#736);
#614=LINE('',#1433,#737);
#615=LINE('',#1435,#738);
#616=LINE('',#1440,#739);
#617=LINE('',#1449,#740);
#618=LINE('',#1454,#741);
#619=LINE('',#1475,#742);
#620=LINE('',#1477,#743);
#621=LINE('',#1482,#744);
#622=LINE('',#1487,#745);
#623=LINE('',#1489,#746);
#624=LINE('',#1494,#747);
#625=VECTOR('',#954,1000.);
#626=VECTOR('',#955,1000.);
#627=VECTOR('',#956,1000.);
#628=VECTOR('',#957,1000.);
#629=VECTOR('',#958,1000.);
#630=VECTOR('',#959,1000.);
#631=VECTOR('',#960,1000.);
#632=VECTOR('',#961,1000.);
#633=VECTOR('',#962,1000.);
#634=VECTOR('',#965,1000.);
#635=VECTOR('',#966,1000.);
#636=VECTOR('',#967,1000.);
#637=VECTOR('',#968,1000.);
#638=VECTOR('',#971,1000.);
#639=VECTOR('',#974,1000.);
#640=VECTOR('',#975,1000.);
#641=VECTOR('',#976,1000.);
#642=VECTOR('',#977,1000.);
#643=VECTOR('',#978,1000.);
#644=VECTOR('',#979,1000.);
#645=VECTOR('',#980,1000.);
#646=VECTOR('',#981,1000.);
#647=VECTOR('',#982,1000.);
#648=VECTOR('',#983,1000.);
#649=VECTOR('',#984,1000.);
#650=VECTOR('',#985,1000.);
#651=VECTOR('',#988,1000.);
#652=VECTOR('',#989,1000.);
#653=VECTOR('',#990,1000.);
#654=VECTOR('',#991,1000.);
#655=VECTOR('',#992,1000.);
#656=VECTOR('',#993,1000.);
#657=VECTOR('',#994,1000.);
#658=VECTOR('',#995,1000.);
#659=VECTOR('',#996,1000.);
#660=VECTOR('',#997,1000.);
#661=VECTOR('',#998,1000.);
#662=VECTOR('',#999,1000.);
#663=VECTOR('',#1000,1000.);
#664=VECTOR('',#1001,1000.);
#665=VECTOR('',#1002,1000.);
#666=VECTOR('',#1003,1000.);
#667=VECTOR('',#1004,1000.);
#668=VECTOR('',#1005,1000.);
#669=VECTOR('',#1006,1000.);
#670=VECTOR('',#1007,1000.);
#671=VECTOR('',#1008,1000.);
#672=VECTOR('',#1009,1000.);
#673=VECTOR('',#1010,1000.);
#674=VECTOR('',#1011,1000.);
#675=VECTOR('',#1012,1000.);
#676=VECTOR('',#1013,1000.);
#677=VECTOR('',#1014,1000.);
#678=VECTOR('',#1015,1000.);
#679=VECTOR('',#1016,1000.);
#680=VECTOR('',#1017,1000.);
#681=VECTOR('',#1018,1000.);
#682=VECTOR('',#1019,1000.);
#683=VECTOR('',#1020,1000.);
#684=VECTOR('',#1021,1000.);
#685=VECTOR('',#1022,1000.);
#686=VECTOR('',#1023,1000.);
#687=VECTOR('',#1024,1000.);
#688=VECTOR('',#1025,1000.);
#689=VECTOR('',#1026,1000.);
#690=VECTOR('',#1027,1000.);
#691=VECTOR('',#1028,1000.);
#692=VECTOR('',#1029,1000.);
#693=VECTOR('',#1030,1000.);
#694=VECTOR('',#1031,1000.);
#695=VECTOR('',#1032,1000.);
#696=VECTOR('',#1033,1000.);
#697=VECTOR('',#1034,1000.);
#698=VECTOR('',#1035,1000.);
#699=VECTOR('',#1036,1000.);
#700=VECTOR('',#1037,1000.);
#701=VECTOR('',#1038,1000.);
#702=VECTOR('',#1039,1000.);
#703=VECTOR('',#1040,1000.);
#704=VECTOR('',#1041,1000.);
#705=VECTOR('',#1042,1000.);
#706=VECTOR('',#1043,1000.);
#707=VECTOR('',#1044,1000.);
#708=VECTOR('',#1047,1000.);
#709=VECTOR('',#1050,1000.);
#710=VECTOR('',#1051,1000.);
#711=VECTOR('',#1052,1000.);
#712=VECTOR('',#1053,1000.);
#713=VECTOR('',#1054,1000.);
#714=VECTOR('',#1055,1000.);
#715=VECTOR('',#1056,1000.);
#716=VECTOR('',#1057,1000.);
#717=VECTOR('',#1058,1000.);
#718=VECTOR('',#1059,1000.);
#719=VECTOR('',#1060,1000.);
#720=VECTOR('',#1061,1000.);
#721=VECTOR('',#1062,1000.);
#722=VECTOR('',#1063,1000.);
#723=VECTOR('',#1064,1000.);
#724=VECTOR('',#1065,1000.);
#725=VECTOR('',#1066,1000.);
#726=VECTOR('',#1067,1000.);
#727=VECTOR('',#1068,1000.);
#728=VECTOR('',#1069,1000.);
#729=VECTOR('',#1070,1000.);
#730=VECTOR('',#1073,1000.);
#731=VECTOR('',#1076,1000.);
#732=VECTOR('',#1077,1000.);
#733=VECTOR('',#1078,1000.);
#734=VECTOR('',#1079,1000.);
#735=VECTOR('',#1080,1000.);
#736=VECTOR('',#1081,1000.);
#737=VECTOR('',#1082,1000.);
#738=VECTOR('',#1083,1000.);
#739=VECTOR('',#1084,1000.);
#740=VECTOR('',#1085,1000.);
#741=VECTOR('',#1086,1000.);
#742=VECTOR('',#1087,1000.);
#743=VECTOR('',#1088,1000.);
#744=VECTOR('',#1089,1000.);
#745=VECTOR('',#1090,1000.);
#746=VECTOR('',#1091,1000.);
#747=VECTOR('',#1092,1000.);
#748=EDGE_LOOP('',(#23,#24,#25,#26));
#749=EDGE_LOOP('',(#27,#28,#29,#30,#31,#32));
#750=EDGE_LOOP('',(#33,#34,#35,#36,#37,#38,#39,#40));
#751=EDGE_LOOP('',(#41,#42,#43,#44,#45,#46,#47,#48,#49,#50,#51,#52,#53,
#54,#55,#56));
#752=EDGE_LOOP('',(#57,#58,#59,#60,#61,#62,#63,#64));
#753=EDGE_LOOP('',(#65,#66,#67,#68));
#754=EDGE_LOOP('',(#69,#70,#71,#72));
#755=EDGE_LOOP('',(#73,#74,#75,#76));
#756=EDGE_LOOP('',(#77,#78,#79,#80));
#757=EDGE_LOOP('',(#81,#82,#83,#84));
#758=EDGE_LOOP('',(#85,#86,#87,#88));
#759=EDGE_LOOP('',(#89,#90,#91,#92));
#760=EDGE_LOOP('',(#93,#94,#95,#96));
#761=EDGE_LOOP('',(#97,#98,#99,#100));
#762=EDGE_LOOP('',(#101,#102,#103,#104));
#763=EDGE_LOOP('',(#105,#106,#107,#108));
#764=EDGE_LOOP('',(#109,#110,#111,#112));
#765=EDGE_LOOP('',(#113,#114,#115,#116));
#766=EDGE_LOOP('',(#117,#118,#119,#120,#121,#122,#123,#124,#125,#126,#127,
#128,#129,#130,#131,#132,#133,#134,#135,#136,#137,#138,#139,#140,#141,#142,
#143,#144,#145));
#767=EDGE_LOOP('',(#146,#147,#148));
#768=EDGE_LOOP('',(#149,#150,#151));
#769=EDGE_LOOP('',(#152,#153,#154));
#770=EDGE_LOOP('',(#155,#156,#157));
#771=EDGE_LOOP('',(#158,#159,#160,#161));
#772=EDGE_LOOP('',(#162,#163,#164,#165,#166,#167,#168,#169,#170,#171,#172,
#173,#174,#175,#176,#177,#178,#179,#180,#181,#182,#183,#184,#185,#186,#187));
#773=EDGE_LOOP('',(#188,#189,#190,#191));
#774=EDGE_LOOP('',(#192,#193,#194,#195,#196,#197));
#775=EDGE_LOOP('',(#198,#199,#200,#201,#202,#203,#204,#205));
#776=EDGE_LOOP('',(#206,#207,#208,#209,#210,#211));
#777=EDGE_LOOP('',(#212,#213,#214));
#778=EDGE_LOOP('',(#215,#216,#217,#218));
#779=EDGE_LOOP('',(#219,#220,#221,#222));
#780=EDGE_LOOP('',(#223,#224,#225,#226));
#781=EDGE_LOOP('',(#227,#228,#229,#230));
#782=EDGE_LOOP('',(#231,#232,#233,#234));
#783=EDGE_LOOP('',(#235,#236,#237,#238));
#784=EDGE_LOOP('',(#239,#240,#241,#242));
#785=EDGE_LOOP('',(#243,#244,#245,#246));
#786=EDGE_LOOP('',(#247,#248,#249,#250));
#787=EDGE_LOOP('',(#251,#252,#253,#254));
#788=EDGE_LOOP('',(#255,#256,#257,#258));
#789=EDGE_LOOP('',(#259,#260,#261));
#790=EDGE_LOOP('',(#262,#263,#264,#265));
#791=EDGE_LOOP('',(#266,#267,#268));
#792=EDGE_LOOP('',(#269,#270,#271,#272,#273,#274,#275,#276));
#793=EDGE_LOOP('',(#277,#278,#279,#280));
#794=EDGE_LOOP('',(#281,#282,#283,#284));
#795=FACE_BOUND('',#748,.T.);
#796=FACE_BOUND('',#749,.T.);
#797=FACE_BOUND('',#750,.T.);
#798=FACE_BOUND('',#751,.T.);
#799=FACE_BOUND('',#752,.T.);
#800=FACE_BOUND('',#753,.T.);
#801=FACE_BOUND('',#754,.T.);
#802=FACE_BOUND('',#755,.T.);
#803=FACE_BOUND('',#756,.T.);
#804=FACE_BOUND('',#757,.T.);
#805=FACE_BOUND('',#758,.T.);
#806=FACE_BOUND('',#759,.T.);
#807=FACE_BOUND('',#760,.T.);
#808=FACE_BOUND('',#761,.T.);
#809=FACE_BOUND('',#762,.T.);
#810=FACE_BOUND('',#763,.T.);
#811=FACE_BOUND('',#764,.T.);
#812=FACE_BOUND('',#765,.T.);
#813=FACE_BOUND('',#766,.T.);
#814=FACE_BOUND('',#767,.T.);
#815=FACE_BOUND('',#768,.T.);
#816=FACE_BOUND('',#769,.T.);
#817=FACE_BOUND('',#770,.T.);
#818=FACE_BOUND('',#771,.T.);
#819=FACE_BOUND('',#772,.T.);
#820=FACE_BOUND('',#773,.T.);
#821=FACE_BOUND('',#774,.T.);
#822=FACE_BOUND('',#775,.T.);
#823=FACE_BOUND('',#776,.T.);
#824=FACE_BOUND('',#777,.T.);
#825=FACE_BOUND('',#778,.T.);
#826=FACE_BOUND('',#779,.T.);
#827=FACE_BOUND('',#780,.T.);
#828=FACE_BOUND('',#781,.T.);
#829=FACE_BOUND('',#782,.T.);
#830=FACE_BOUND('',#783,.T.);
#831=FACE_BOUND('',#784,.T.);
#832=FACE_BOUND('',#785,.T.);
#833=FACE_BOUND('',#786,.T.);
#834=FACE_BOUND('',#787,.T.);
#835=FACE_BOUND('',#788,.T.);
#836=FACE_BOUND('',#789,.T.);
#837=FACE_BOUND('',#790,.T.);
#838=FACE_BOUND('',#791,.T.);
#839=FACE_BOUND('',#792,.T.);
#840=FACE_BOUND('',#793,.T.);
#841=FACE_BOUND('',#794,.T.);
#842=B_SPLINE_SURFACE_WITH_KNOTS('',1,1,((#1094,#1095),(#1096,#1097)),
 .PLANE_SURF.,.F.,.F.,.F.,(2,2),(2,2),(0.,1.),(0.,1.),.UNSPECIFIED.);
#843=B_SPLINE_SURFACE_WITH_KNOTS('',1,1,((#1106,#1107),(#1108,#1109)),
 .PLANE_SURF.,.F.,.F.,.F.,(2,2),(2,2),(0.,1.),(0.,1.),.UNSPECIFIED.);
#844=B_SPLINE_SURFACE_WITH_KNOTS('',1,1,((#1137,#1138),(#1139,#1140)),
 .PLANE_SURF.,.F.,.F.,.F.,(2,2),(2,2),(0.,1.),(0.,1.),.UNSPECIFIED.);
#845=B_SPLINE_SURFACE_WITH_KNOTS('',1,1,((#1173,#1174),(#1175,#1176)),
 .PLANE_SURF.,.F.,.F.,.F.,(2,2),(2,2),(0.,1.),(0.,1.),.UNSPECIFIED.);
#846=B_SPLINE_SURFACE_WITH_KNOTS('',1,1,((#1187,#1188),(#1189,#1190)),
 .PLANE_SURF.,.F.,.F.,.F.,(2,2),(2,2),(0.,1.),(0.,1.),.UNSPECIFIED.);
#847=B_SPLINE_SURFACE_WITH_KNOTS('',1,1,((#1198,#1199),(#1200,#1201)),
 .PLANE_SURF.,.F.,.F.,.F.,(2,2),(2,2),(0.,1.),(0.,1.),.UNSPECIFIED.);
#848=B_SPLINE_SURFACE_WITH_KNOTS('',1,1,((#1210,#1211),(#1212,#1213)),
 .PLANE_SURF.,.F.,.F.,.F.,(2,2),(2,2),(0.,1.),(0.,1.),.UNSPECIFIED.);
#849=B_SPLINE_SURFACE_WITH_KNOTS('',1,1,((#1219,#1220),(#1221,#1222)),
 .PLANE_SURF.,.F.,.F.,.F.,(2,2),(2,2),(0.,1.),(0.,1.),.UNSPECIFIED.);
#850=B_SPLINE_SURFACE_WITH_KNOTS('',1,1,((#1231,#1232),(#1233,#1234)),
 .PLANE_SURF.,.F.,.F.,.F.,(2,2),(2,2),(0.,1.),(0.,1.),.UNSPECIFIED.);
#851=B_SPLINE_SURFACE_WITH_KNOTS('',1,1,((#1240,#1241),(#1242,#1243)),
 .PLANE_SURF.,.F.,.F.,.F.,(2,2),(2,2),(0.,1.),(0.,1.),.UNSPECIFIED.);
#852=B_SPLINE_SURFACE_WITH_KNOTS('',1,1,((#1249,#1250),(#1251,#1252)),
 .PLANE_SURF.,.F.,.F.,.F.,(2,2),(2,2),(0.,1.),(0.,1.),.UNSPECIFIED.);
#853=B_SPLINE_SURFACE_WITH_KNOTS('',1,1,((#1261,#1262),(#1263,#1264)),
 .PLANE_SURF.,.F.,.F.,.F.,(2,2),(2,2),(0.,1.),(0.,1.),.UNSPECIFIED.);
#854=B_SPLINE_SURFACE_WITH_KNOTS('',1,1,((#1270,#1271),(#1272,#1273)),
 .PLANE_SURF.,.F.,.F.,.F.,(2,2),(2,2),(0.,1.),(0.,1.),.UNSPECIFIED.);
#855=B_SPLINE_SURFACE_WITH_KNOTS('',1,1,((#1282,#1283),(#1284,#1285)),
 .PLANE_SURF.,.F.,.F.,.F.,(2,2),(2,2),(0.,1.),(0.,1.),.UNSPECIFIED.);
#856=B_SPLINE_SURFACE_WITH_KNOTS('',1,1,((#1291,#1292),(#1293,#1294)),
 .PLANE_SURF.,.F.,.F.,.F.,(2,2),(2,2),(0.,1.),(0.,1.),.UNSPECIFIED.);
#857=B_SPLINE_SURFACE_WITH_KNOTS('',1,1,((#1303,#1304),(#1305,#1306)),
 .PLANE_SURF.,.F.,.F.,.F.,(2,2),(2,2),(0.,1.),(0.,1.),.UNSPECIFIED.);
#858=B_SPLINE_SURFACE_WITH_KNOTS('',1,1,((#1312,#1313),(#1314,#1315)),
 .PLANE_SURF.,.F.,.F.,.F.,(2,2),(2,2),(0.,1.),(0.,1.),.UNSPECIFIED.);
#859=B_SPLINE_SURFACE_WITH_KNOTS('',1,1,((#1321,#1322),(#1323,#1324)),
 .PLANE_SURF.,.F.,.F.,.F.,(2,2),(2,2),(0.,1.),(0.,1.),.UNSPECIFIED.);
#860=B_SPLINE_SURFACE_WITH_KNOTS('',1,1,((#1340,#1341),(#1342,#1343)),
 .PLANE_SURF.,.F.,.F.,.F.,(2,2),(2,2),(0.,1.),(0.,1.),.UNSPECIFIED.);
#861=B_SPLINE_SURFACE_WITH_KNOTS('',1,1,((#1345,#1346),(#1347,#1348)),
 .PLANE_SURF.,.F.,.F.,.F.,(2,2),(2,2),(0.713023986943974,0.732022307382312),
(0.0454545454545504,0.95454545454545),.PIECEWISE_BEZIER_KNOTS.);
#862=B_SPLINE_SURFACE_WITH_KNOTS('',1,1,((#1350,#1351),(#1352,#1353)),
 .PLANE_SURF.,.F.,.F.,.F.,(2,2),(2,2),(0.0454545454545455,0.0644528658928836),
(0.0454545454545427,0.954545454545452),.PIECEWISE_BEZIER_KNOTS.);
#863=B_SPLINE_SURFACE_WITH_KNOTS('',1,1,((#1355,#1356),(#1357,#1358)),
 .PLANE_SURF.,.F.,.F.,.F.,(2,2),(2,2),(0.267977692617688,0.286976013056026),
(0.0454545454545505,0.954545454545453),.PIECEWISE_BEZIER_KNOTS.);
#864=B_SPLINE_SURFACE_WITH_KNOTS('',1,1,((#1360,#1361),(#1362,#1363)),
 .PLANE_SURF.,.F.,.F.,.F.,(2,2),(2,2),(0.,1.),(0.,1.),.UNSPECIFIED.);
#865=B_SPLINE_SURFACE_WITH_KNOTS('',1,1,((#1366,#1367),(#1368,#1369)),
 .PLANE_SURF.,.F.,.F.,.F.,(2,2),(2,2),(0.,1.),(0.,1.),.UNSPECIFIED.);
#866=B_SPLINE_SURFACE_WITH_KNOTS('',1,1,((#1372,#1373),(#1374,#1375)),
 .PLANE_SURF.,.F.,.F.,.F.,(2,2),(2,2),(0.,1.),(0.,1.),.UNSPECIFIED.);
#867=B_SPLINE_SURFACE_WITH_KNOTS('',1,1,((#1377,#1378),(#1379,#1380)),
 .PLANE_SURF.,.F.,.F.,.F.,(2,2),(2,2),(0.,1.),(0.,1.),.UNSPECIFIED.);
#868=B_SPLINE_SURFACE_WITH_KNOTS('',1,1,((#1402,#1403),(#1404,#1405)),
 .PLANE_SURF.,.F.,.F.,.F.,(2,2),(2,2),(0.,1.),(0.,1.),.UNSPECIFIED.);
#869=B_SPLINE_SURFACE_WITH_KNOTS('',1,1,((#1409,#1410),(#1411,#1412)),
 .PLANE_SURF.,.F.,.F.,.F.,(2,2),(2,2),(0.935547134107116,0.954545454545455),
(0.045454545454548,0.954545454545451),.PIECEWISE_BEZIER_KNOTS.);
#870=B_SPLINE_SURFACE_WITH_KNOTS('',1,1,((#1413,#1414),(#1415,#1416)),
 .PLANE_SURF.,.F.,.F.,.F.,(2,2),(2,2),(0.0454545454545455,0.37245121007545),
(0.045454545454546,0.954545454545447),.PIECEWISE_BEZIER_KNOTS.);
#871=B_SPLINE_SURFACE_WITH_KNOTS('',1,1,((#1420,#1421),(#1422,#1423)),
 .PLANE_SURF.,.F.,.F.,.F.,(2,2),(2,2),(0.,1.),(0.,1.),.UNSPECIFIED.);
#872=B_SPLINE_SURFACE_WITH_KNOTS('',1,1,((#1425,#1426),(#1427,#1428)),
 .PLANE_SURF.,.F.,.F.,.F.,(2,2),(2,2),(0.0454545454545455,0.370500931757632),
(0.0454545454545804,0.954545454545451),.PIECEWISE_BEZIER_KNOTS.);
#873=B_SPLINE_SURFACE_WITH_KNOTS('',1,1,((#1429,#1430),(#1431,#1432)),
 .PLANE_SURF.,.F.,.F.,.F.,(2,2),(2,2),(0.,1.),(0.,1.),.UNSPECIFIED.);
#874=B_SPLINE_SURFACE_WITH_KNOTS('',1,1,((#1436,#1437),(#1438,#1439)),
 .PLANE_SURF.,.F.,.F.,.F.,(2,2),(2,2),(0.629499068242368,0.954545454545455),
(0.0454545454545462,0.954545454545457),.PIECEWISE_BEZIER_KNOTS.);
#875=B_SPLINE_SURFACE_WITH_KNOTS('',1,1,((#1441,#1442),(#1443,#1444)),
 .PLANE_SURF.,.F.,.F.,.F.,(2,2),(2,2),(0.62754878992455,0.954545454545455),
(0.0454545454545468,0.954545454545455),.PIECEWISE_BEZIER_KNOTS.);
#876=B_SPLINE_SURFACE_WITH_KNOTS('',1,1,((#1445,#1446),(#1447,#1448)),
 .PLANE_SURF.,.F.,.F.,.F.,(2,2),(2,2),(0.,1.),(0.,1.),.UNSPECIFIED.);
#877=B_SPLINE_SURFACE_WITH_KNOTS('',1,1,((#1450,#1451),(#1452,#1453)),
 .PLANE_SURF.,.F.,.F.,.F.,(2,2),(2,2),(0.,1.),(0.,1.),.UNSPECIFIED.);
#878=B_SPLINE_SURFACE_WITH_KNOTS('',1,1,((#1471,#1472),(#1473,#1474)),
 .PLANE_SURF.,.F.,.F.,.F.,(2,2),(2,2),(0.,1.),(0.,1.),.UNSPECIFIED.);
#879=B_SPLINE_SURFACE_WITH_KNOTS('',1,1,((#1478,#1479),(#1480,#1481)),
 .PLANE_SURF.,.F.,.F.,.F.,(2,2),(2,2),(0.,1.),(0.,1.),.UNSPECIFIED.);
#880=B_SPLINE_SURFACE_WITH_KNOTS('',1,1,((#1483,#1484),(#1485,#1486)),
 .PLANE_SURF.,.F.,.F.,.F.,(2,2),(2,2),(0.,1.),(0.,1.),.UNSPECIFIED.);
#881=B_SPLINE_SURFACE_WITH_KNOTS('',1,1,((#1490,#1491),(#1492,#1493)),
 .PLANE_SURF.,.F.,.F.,.F.,(2,2),(2,2),(0.,1.),(0.,1.),.UNSPECIFIED.);
#882=B_SPLINE_SURFACE_WITH_KNOTS('',1,1,((#1495,#1496),(#1497,#1498)),
 .PLANE_SURF.,.F.,.F.,.F.,(2,2),(2,2),(0.,1.),(0.,1.),.UNSPECIFIED.);
#883=B_SPLINE_SURFACE_WITH_KNOTS('',1,1,((#1499,#1500),(#1501,#1502)),
 .PLANE_SURF.,.F.,.F.,.F.,(2,2),(2,2),(0.,1.),(0.,1.),.UNSPECIFIED.);
#884=B_SPLINE_SURFACE_WITH_KNOTS('',1,1,((#1503,#1504),(#1505,#1506)),
 .PLANE_SURF.,.F.,.F.,.F.,(2,2),(2,2),(0.,1.),(0.,1.),.UNSPECIFIED.);
#885=ADVANCED_FACE('',(#795),#842,.T.);
#886=ADVANCED_FACE('',(#796,#797),#843,.F.);
#887=ADVANCED_FACE('',(#798),#844,.T.);
#888=ADVANCED_FACE('',(#799),#845,.T.);
#889=ADVANCED_FACE('',(#800),#846,.F.);
#890=ADVANCED_FACE('',(#801),#847,.F.);
#891=ADVANCED_FACE('',(#802),#848,.F.);
#892=ADVANCED_FACE('',(#803),#849,.F.);
#893=ADVANCED_FACE('',(#804),#850,.F.);
#894=ADVANCED_FACE('',(#805),#851,.F.);
#895=ADVANCED_FACE('',(#806),#852,.F.);
#896=ADVANCED_FACE('',(#807),#853,.F.);
#897=ADVANCED_FACE('',(#808),#854,.F.);
#898=ADVANCED_FACE('',(#809),#855,.F.);
#899=ADVANCED_FACE('',(#810),#856,.F.);
#900=ADVANCED_FACE('',(#811),#857,.F.);
#901=ADVANCED_FACE('',(#812),#858,.F.);
#902=ADVANCED_FACE('',(#813),#859,.T.);
#903=ADVANCED_FACE('',(#814),#860,.F.);
#904=ADVANCED_FACE('',(#815),#861,.F.);
#905=ADVANCED_FACE('',(#816),#862,.F.);
#906=ADVANCED_FACE('',(#817),#863,.F.);
#907=ADVANCED_FACE('',(#818),#864,.T.);
#908=ADVANCED_FACE('',(#819),#865,.F.);
#909=ADVANCED_FACE('',(#820),#866,.F.);
#910=ADVANCED_FACE('',(#821),#867,.T.);
#911=ADVANCED_FACE('',(#822),#12,.F.);
#912=ADVANCED_FACE('',(#823),#868,.T.);
#913=ADVANCED_FACE('',(#824),#869,.F.);
#914=ADVANCED_FACE('',(#825),#870,.T.);
#915=ADVANCED_FACE('',(#826),#871,.F.);
#916=ADVANCED_FACE('',(#827),#872,.T.);
#917=ADVANCED_FACE('',(#828),#873,.T.);
#918=ADVANCED_FACE('',(#829),#874,.T.);
#919=ADVANCED_FACE('',(#830),#875,.T.);
#920=ADVANCED_FACE('',(#831),#876,.T.);
#921=ADVANCED_FACE('',(#832),#877,.T.);
#922=ADVANCED_FACE('',(#833),#13,.T.);
#923=ADVANCED_FACE('',(#834),#14,.T.);
#924=ADVANCED_FACE('',(#835),#878,.T.);
#925=ADVANCED_FACE('',(#836),#879,.F.);
#926=ADVANCED_FACE('',(#837),#880,.T.);
#927=ADVANCED_FACE('',(#838),#881,.F.);
#928=ADVANCED_FACE('',(#839),#882,.T.);
#929=ADVANCED_FACE('',(#840),#883,.F.);
#930=ADVANCED_FACE('',(#841),#884,.F.);
#931=CLOSED_SHELL('',(#885,#886,#887,#888,#889,#890,#891,#892,#893,#894,
#895,#896,#897,#898,#899,#900,#901,#902,#903,#904,#905,#906,#907,#908,#909,
#910,#911,#912,#913,#914,#915,#916,#917,#918,#919,#920,#921,#922,#923,#924,
#925,#926,#927,#928,#929,#930));
#932=STYLED_ITEM('',(#933),#940);
#933=PRESENTATION_STYLE_ASSIGNMENT((#934));
#934=SURFACE_STYLE_USAGE(.BOTH.,#935);
#935=SURFACE_SIDE_STYLE('',(#936));
#936=SURFACE_STYLE_FILL_AREA(#937);
#937=FILL_AREA_STYLE('',(#938));
#938=FILL_AREA_STYLE_COLOUR('',#939);
#939=COLOUR_RGB('',0.615686274509804,0.811764705882353,0.929411764705882);
#940=MANIFOLD_SOLID_BREP('Part 1',#931);
#941=SHAPE_DEFINITION_REPRESENTATION(#1513,#942);
#942=SHAPE_REPRESENTATION('Part 1',(#943),#1508);
#943=AXIS2_PLACEMENT_3D('',#1093,#952,#953);
#944=AXIS2_PLACEMENT_3D('',#1121,#963,#964);
#945=AXIS2_PLACEMENT_3D('',#1131,#969,#970);
#946=AXIS2_PLACEMENT_3D('',#1135,#972,#973);
#947=AXIS2_PLACEMENT_3D('',#1164,#986,#987);
#948=AXIS2_PLACEMENT_3D('',#1328,#1045,#1046);
#949=AXIS2_PLACEMENT_3D('',#1330,#1048,#1049);
#950=AXIS2_PLACEMENT_3D('',#1396,#1071,#1072);
#951=AXIS2_PLACEMENT_3D('',#1399,#1074,#1075);
#952=DIRECTION('',(0.,0.,1.));
#953=DIRECTION('',(1.,0.,0.));
#954=DIRECTION('',(1.1180382629631E-16,0.258819045102521,0.965925826289068));
#955=DIRECTION('',(-5.73820719242805E-17,1.,2.00154597632388E-32));
#956=DIRECTION('',(3.4881033556353E-16,6.5789892121169E-33,-1.));
#957=DIRECTION('',(-1.45705583210082E-16,0.965925826289068,-0.258819045102521));
#958=DIRECTION('',(1.,1.1180382629631E-16,-1.45705583210082E-16));
#959=DIRECTION('',(1.1180382629631E-16,0.258819045102521,0.965925826289068));
#960=DIRECTION('',(1.,1.1180382629631E-16,-1.45705583210082E-16));
#961=DIRECTION('',(1.1180382629631E-16,0.258819045102521,0.965925826289068));
#962=DIRECTION('',(1.,1.1180382629631E-16,-1.45705583210082E-16));
#963=DIRECTION('',(1.45705583210082E-16,-0.965925826289068,0.258819045102521));
#964=DIRECTION('',(1.,1.1180382629631E-16,-1.45705583210082E-16));
#965=DIRECTION('',(3.22073338535923E-16,-0.258819045102521,-0.965925826289068));
#966=DIRECTION('',(1.,5.73820719242805E-17,-3.4881033556353E-16));
#967=DIRECTION('',(-3.22073338535923E-16,-0.258819045102521,-0.965925826289068));
#968=DIRECTION('',(-1.,-5.73820719242805E-17,3.4881033556353E-16));
#969=DIRECTION('',(1.45705583210082E-16,-0.965925826289068,0.258819045102521));
#970=DIRECTION('',(1.,1.1180382629631E-16,-1.45705583210082E-16));
#971=DIRECTION('',(1.,1.1180382629631E-16,-1.45705583210082E-16));
#972=DIRECTION('',(1.45705583210082E-16,-0.965925826289068,0.258819045102521));
#973=DIRECTION('',(1.,1.1180382629631E-16,-1.45705583210082E-16));
#974=DIRECTION('',(1.,-5.73820719242805E-17,3.4881033556353E-16));
#975=DIRECTION('',(0.5,0.224143868042013,0.836516303737808));
#976=DIRECTION('',(1.,1.40740785857129E-16,-3.77113799125392E-17));
#977=DIRECTION('',(3.70079900406318E-16,-0.258819045102521,-0.965925826289068));
#978=DIRECTION('',(1.,1.1180382629631E-16,-1.45705583210082E-16));
#979=DIRECTION('',(1.1180382629631E-16,0.258819045102521,0.965925826289068));
#980=DIRECTION('',(1.,1.40740785857129E-16,-3.77113799125392E-17));
#981=DIRECTION('',(0.5,-0.224143868042013,-0.836516303737809));
#982=DIRECTION('',(1.1180382629631E-16,0.258819045102521,0.965925826289068));
#983=DIRECTION('',(1.,1.1180382629631E-16,-1.45705583210082E-16));
#984=DIRECTION('',(1.1180382629631E-16,0.258819045102521,0.965925826289068));
#985=DIRECTION('',(1.,1.1180382629631E-16,-1.45705583210082E-16));
#986=DIRECTION('',(1.45705583210082E-16,-0.965925826289068,0.258819045102521));
#987=DIRECTION('',(1.,1.1180382629631E-16,-1.45705583210082E-16));
#988=DIRECTION('',(1.,1.1180382629631E-16,-1.45705583210082E-16));
#989=DIRECTION('',(1.1180382629631E-16,0.258819045102521,0.965925826289068));
#990=DIRECTION('',(1.,1.1180382629631E-16,-1.45705583210082E-16));
#991=DIRECTION('',(1.1180382629631E-16,0.258819045102521,0.965925826289068));
#992=DIRECTION('',(1.,1.1180382629631E-16,-1.45705583210082E-16));
#993=DIRECTION('',(-1.45705583210082E-16,0.965925826289068,-0.258819045102521));
#994=DIRECTION('',(-1.45705583210082E-16,0.965925826289068,-0.258819045102521));
#995=DIRECTION('',(1.,1.1180382629631E-16,-1.45705583210082E-16));
#996=DIRECTION('',(1.45705583210082E-16,-0.965925826289068,0.258819045102521));
#997=DIRECTION('',(1.45705583210082E-16,-0.965925826289068,0.258819045102521));
#998=DIRECTION('',(-3.4881033556353E-16,6.5789892121169E-33,-1.));
#999=DIRECTION('',(-5.73820719242805E-17,1.,2.00154597632388E-32));
#1000=DIRECTION('',(1.1180382629631E-16,0.258819045102521,0.965925826289068));
#1001=DIRECTION('',(-1.45705583210082E-16,0.965925826289068,-0.258819045102521));
#1002=DIRECTION('',(-0.5,0.224143868042013,0.836516303737808));
#1003=DIRECTION('',(1.45705583210082E-16,-0.965925826289068,0.258819045102521));
#1004=DIRECTION('',(0.5,-0.224143868042013,-0.836516303737808));
#1005=DIRECTION('',(-1.45705583210082E-16,0.965925826289068,-0.258819045102521));
#1006=DIRECTION('',(0.5,0.224143868042013,0.836516303737808));
#1007=DIRECTION('',(-1.45705583210082E-16,0.965925826289068,-0.258819045102521));
#1008=DIRECTION('',(-0.5,-0.224143868042013,-0.836516303737808));
#1009=DIRECTION('',(-0.5,0.224143868042013,0.836516303737808));
#1010=DIRECTION('',(1.45705583210082E-16,-0.965925826289068,0.258819045102521));
#1011=DIRECTION('',(0.5,-0.224143868042013,-0.836516303737808));
#1012=DIRECTION('',(-1.45705583210082E-16,0.965925826289068,-0.258819045102521));
#1013=DIRECTION('',(0.5,0.224143868042013,0.836516303737808));
#1014=DIRECTION('',(-1.45705583210082E-16,0.965925826289068,-0.258819045102521));
#1015=DIRECTION('',(-0.5,-0.224143868042013,-0.836516303737808));
#1016=DIRECTION('',(1.45705583210082E-16,-0.965925826289068,0.258819045102521));
#1017=DIRECTION('',(-0.5,0.224143868042013,0.836516303737809));
#1018=DIRECTION('',(1.45705583210082E-16,-0.965925826289068,0.258819045102521));
#1019=DIRECTION('',(-0.5,0.224143868042013,0.836516303737809));
#1020=DIRECTION('',(1.45705583210082E-16,-0.965925826289068,0.258819045102521));
#1021=DIRECTION('',(0.5,-0.224143868042013,-0.836516303737809));
#1022=DIRECTION('',(-1.45705583210082E-16,0.965925826289068,-0.258819045102521));
#1023=DIRECTION('',(0.5,0.224143868042013,0.836516303737808));
#1024=DIRECTION('',(-1.45705583210082E-16,0.965925826289068,-0.258819045102521));
#1025=DIRECTION('',(-0.5,-0.224143868042013,-0.836516303737808));
#1026=DIRECTION('',(-0.5,0.224143868042013,0.836516303737808));
#1027=DIRECTION('',(1.45705583210082E-16,-0.965925826289068,0.258819045102521));
#1028=DIRECTION('',(0.5,-0.224143868042013,-0.836516303737808));
#1029=DIRECTION('',(-1.45705583210082E-16,0.965925826289068,-0.258819045102521));
#1030=DIRECTION('',(0.5,0.224143868042013,0.836516303737808));
#1031=DIRECTION('',(-1.45705583210082E-16,0.965925826289068,-0.258819045102521));
#1032=DIRECTION('',(-0.5,-0.224143868042013,-0.836516303737808));
#1033=DIRECTION('',(-0.5,0.224143868042013,0.836516303737809));
#1034=DIRECTION('',(1.45705583210082E-16,-0.965925826289068,0.258819045102521));
#1035=DIRECTION('',(0.5,-0.224143868042013,-0.836516303737809));
#1036=DIRECTION('',(-1.45705583210082E-16,0.965925826289068,-0.258819045102521));
#1037=DIRECTION('',(0.5,0.224143868042013,0.836516303737808));
#1038=DIRECTION('',(-1.45705583210082E-16,0.965925826289068,-0.258819045102521));
#1039=DIRECTION('',(-0.5,-0.224143868042013,-0.836516303737808));
#1040=DIRECTION('',(-0.5,-0.224143868042013,-0.836516303737808));
#1041=DIRECTION('',(1.45705583210082E-16,-0.965925826289068,0.258819045102521));
#1042=DIRECTION('',(-1.45705583210082E-16,0.965925826289068,-0.258819045102521));
#1043=DIRECTION('',(1.,1.40740785857129E-16,-3.77113799125392E-17));
#1044=DIRECTION('',(1.1180382629631E-16,0.258819045102521,0.965925826289068));
#1045=DIRECTION('',(1.45705583210082E-16,-0.965925826289068,0.258819045102521));
#1046=DIRECTION('',(1.,1.1180382629631E-16,-1.45705583210082E-16));
#1047=DIRECTION('',(1.,1.1180382629631E-16,-1.45705583210082E-16));
#1048=DIRECTION('',(1.45705583210082E-16,-0.965925826289068,0.258819045102521));
#1049=DIRECTION('',(1.,1.1180382629631E-16,-1.45705583210082E-16));
#1050=DIRECTION('',(1.1180382629631E-16,0.258819045102521,0.965925826289068));
#1051=DIRECTION('',(1.,1.40740785857129E-16,-3.77113799125392E-17));
#1052=DIRECTION('',(1.,1.1180382629631E-16,-1.45705583210082E-16));
#1053=DIRECTION('',(1.,1.1180382629631E-16,-1.45705583210082E-16));
#1054=DIRECTION('',(1.,1.1180382629631E-16,-1.45705583210082E-16));
#1055=DIRECTION('',(1.,1.1180382629631E-16,-1.45705583210082E-16));
#1056=DIRECTION('',(1.,1.1180382629631E-16,-1.45705583210082E-16));
#1057=DIRECTION('',(1.,1.1180382629631E-16,-1.45705583210082E-16));
#1058=DIRECTION('',(1.,1.1180382629631E-16,-1.45705583210082E-16));
#1059=DIRECTION('',(1.,1.1180382629631E-16,-1.45705583210082E-16));
#1060=DIRECTION('',(1.,1.1180382629631E-16,-1.45705583210082E-16));
#1061=DIRECTION('',(1.,1.1180382629631E-16,-1.45705583210082E-16));
#1062=DIRECTION('',(1.45705583210082E-16,-0.965925826289068,0.258819045102521));
#1063=DIRECTION('',(1.45705583210082E-16,-0.965925826289068,0.258819045102521));
#1064=DIRECTION('',(1.,1.1180382629631E-16,-1.45705583210082E-16));
#1065=DIRECTION('',(1.45705583210082E-16,-0.965925826289068,0.258819045102521));
#1066=DIRECTION('',(1.45705583210082E-16,-0.965925826289068,0.258819045102521));
#1067=DIRECTION('',(-1.45705583210082E-16,0.965925826289068,-0.258819045102521));
#1068=DIRECTION('',(-1.,-1.1180382629631E-16,1.45705583210082E-16));
#1069=DIRECTION('',(1.45705583210082E-16,-0.965925826289068,0.258819045102521));
#1070=DIRECTION('',(1.45705583210082E-16,-0.965925826289068,0.258819045102521));
#1071=DIRECTION('',(1.45705583210082E-16,-0.965925826289068,0.258819045102521));
#1072=DIRECTION('',(1.,1.1180382629631E-16,-1.45705583210082E-16));
#1073=DIRECTION('',(1.45705583210082E-16,-0.965925826289068,0.258819045102521));
#1074=DIRECTION('',(1.45705583210082E-16,-0.965925826289068,0.258819045102521));
#1075=DIRECTION('',(1.,1.1180382629631E-16,-1.45705583210082E-16));
#1076=DIRECTION('',(1.45705583210082E-16,-0.965925826289068,0.258819045102521));
#1077=DIRECTION('',(-1.,-1.1180382629631E-16,1.45705583210082E-16));
#1078=DIRECTION('',(-1.45705583210082E-16,0.965925826289068,-0.258819045102521));
#1079=DIRECTION('',(1.,1.1180382629631E-16,-1.45705583210082E-16));
#1080=DIRECTION('',(-1.1180382629631E-16,-0.258819045102521,-0.965925826289068));
#1081=DIRECTION('',(1.45705583210082E-16,-0.965925826289068,0.258819045102521));
#1082=DIRECTION('',(1.45705583210082E-16,-0.965925826289068,0.258819045102521));
#1083=DIRECTION('',(-1.1180382629631E-16,-0.258819045102521,-0.965925826289068));
#1084=DIRECTION('',(1.,1.1180382629631E-16,-1.45705583210082E-16));
#1085=DIRECTION('',(1.45705583210082E-16,-0.965925826289068,0.258819045102521));
#1086=DIRECTION('',(1.45705583210082E-16,-0.965925826289068,0.258819045102521));
#1087=DIRECTION('',(1.,5.73820719242805E-17,-3.4881033556353E-16));
#1088=DIRECTION('',(-3.4881033556353E-16,0.,1.));
#1089=DIRECTION('',(5.73820719242805E-17,1.,-2.00154597632388E-32));
#1090=DIRECTION('',(1.,5.73820719242805E-17,-3.4881033556353E-16));
#1091=DIRECTION('',(3.4881033556353E-16,0.,1.));
#1092=DIRECTION('',(5.73820719242805E-17,-1.,-2.00154597632388E-32));
#1093=CARTESIAN_POINT('',(0.,0.,0.));
#1094=CARTESIAN_POINT('',(57.5,-9.10718120844078,-4.95276734265762));
#1095=CARTESIAN_POINT('',(57.5,-21.8789165210172,-1.53059117970873));
#1096=CARTESIAN_POINT('',(57.5,-0.228497393816852,28.1829317578584));
#1097=CARTESIAN_POINT('',(57.5,-13.0002327063932,31.6051079208072));
#1098=CARTESIAN_POINT('',(57.5,-20.3030217453004,2.02859449745292));
#1099=CARTESIAN_POINT('',(57.5,-20.8466662183008,-0.000314297038657733));
#1100=CARTESIAN_POINT('',(57.5,-12.8232758201227,29.9433863179224));
#1101=CARTESIAN_POINT('',(57.5,-14.6616379100613,-0.00031429703865795));
#1102=CARTESIAN_POINT('',(57.5,-8.47660960182188,-0.000314297038657733));
#1103=CARTESIAN_POINT('',(57.5,-8.47660960182188,13.8068503074806));
#1104=CARTESIAN_POINT('',(57.5,-8.47660960182188,28.7787006149611));
#1105=CARTESIAN_POINT('',(57.5,-11.3743870806891,29.5551577502687));
#1106=CARTESIAN_POINT('',(-64.009,-16.5993710011974,-1.53585762526753));
#1107=CARTESIAN_POINT('',(-64.009,-7.54752391687491,32.2460955957682));
#1108=CARTESIAN_POINT('',(64.009,-16.5993710011974,-1.53585762526754));
#1109=CARTESIAN_POINT('',(64.009,-7.54752391687489,32.2460955957681));
#1110=CARTESIAN_POINT('',(1.02870274539189E-15,-14.1186158284866,7.7224467204285));
#1111=CARTESIAN_POINT('',(-24.6609751045933,-14.1186158284866,7.72244672042851));
#1112=CARTESIAN_POINT('',(-52.59,-14.1186158284866,7.72244672042851));
#1113=CARTESIAN_POINT('',(-52.59,-12.2294857558084,14.7727761337696));
#1114=CARTESIAN_POINT('',(-52.59,-15.4127110539991,2.89281758898319));
#1115=CARTESIAN_POINT('',(4.69683613910345E-16,-15.4127110539991,2.89281758898318));
#1116=CARTESIAN_POINT('',(52.59,-15.4127110539991,2.89281758898318));
#1117=CARTESIAN_POINT('',(52.59,-12.2294857558084,14.7727761337696));
#1118=CARTESIAN_POINT('',(52.59,-14.1186158284866,7.7224467204285));
#1119=CARTESIAN_POINT('',(1.02870274539189E-15,-14.1186158284866,7.7224467204285));
#1120=CARTESIAN_POINT('',(24.6609751045933,-14.1186158284866,7.72244672042851));
#1121=CARTESIAN_POINT('',(1.31618537226181E-15,-37.5477859134453,-79.7164064158102));
#1122=CARTESIAN_POINT('',(54.5,-12.2294857558084,14.7727761337696));
#1123=CARTESIAN_POINT('',(54.5,-8.47660960182188,28.7787006149611));
#1124=CARTESIAN_POINT('',(54.5,-16.1879234064555,-0.000314297038655998));
#1125=CARTESIAN_POINT('',(-3.08110014261428E-15,-16.1879234064555,-0.000314297038636917));
#1126=CARTESIAN_POINT('',(-54.5,-16.1879234064555,-0.000314297038617835));
#1127=CARTESIAN_POINT('',(-54.5,-12.2294857558084,14.7727761337696));
#1128=CARTESIAN_POINT('',(-54.5,-8.47660960182188,28.7787006149611));
#1129=CARTESIAN_POINT('',(-57.5,-8.47660960182188,28.7787006149611));
#1130=CARTESIAN_POINT('',(-57.5,-8.47660960182188,28.7787006149611));
#1131=CARTESIAN_POINT('',(-55.5,-8.47660960182188,28.7787006149611));
#1132=CARTESIAN_POINT('',(-55.5,-7.95897151161684,30.7105522675392));
#1133=CARTESIAN_POINT('',(-3.249367636129E-15,-7.95897151161683,30.7105522675392));
#1134=CARTESIAN_POINT('',(55.5,-7.95897151161683,30.7105522675392));
#1135=CARTESIAN_POINT('',(55.5,-8.47660960182187,28.7787006149611));
#1136=CARTESIAN_POINT('',(57.5,-8.47660960182188,28.7787006149611));
#1137=CARTESIAN_POINT('',(-59.065,-18.7301340691025,2.10313626188805));
#1138=CARTESIAN_POINT('',(-59.065,-10.4818258915022,32.8862414571782));
#1139=CARTESIAN_POINT('',(58.965,-18.7301340691025,2.10313626188803));
#1140=CARTESIAN_POINT('',(58.965,-10.4818258915022,32.8862414571782));
#1141=CARTESIAN_POINT('',(44.7681397208144,-21.8169325693881,-9.41695257390508));
#1142=CARTESIAN_POINT('',(52.59,-18.3104885328663,3.66927472429073));
#1143=CARTESIAN_POINT('',(52.9935898384862,-18.1295641578649,4.34449368412401));
#1144=CARTESIAN_POINT('',(-3.89179574647686E-14,-18.1295641578649,4.34449368412401));
#1145=CARTESIAN_POINT('',(53.6,-18.1295641578649,4.34449368412401));
#1146=CARTESIAN_POINT('',(53.6,-14.5836187616752,17.5781420635688));
#1147=CARTESIAN_POINT('',(53.6,-10.856748990484,31.4870094028468));
#1148=CARTESIAN_POINT('',(-2.81225088649875E-15,-10.856748990484,31.4870094028468));
#1149=CARTESIAN_POINT('',(-53.7,-10.856748990484,31.4870094028468));
#1150=CARTESIAN_POINT('',(-53.7,-14.5836187616752,17.5781420635688));
#1151=CARTESIAN_POINT('',(-53.7,-18.1356563157936,4.3217574412061));
#1152=CARTESIAN_POINT('',(-3.89179574647686E-14,-18.1356563157936,4.3217574412061));
#1153=CARTESIAN_POINT('',(-52.98,-18.1356563157936,4.3217574412061));
#1154=CARTESIAN_POINT('',(-44.7681397208144,-21.8169325693881,-9.41695257390501));
#1155=CARTESIAN_POINT('',(-52.59,-18.3104885328664,3.66927472429075));
#1156=CARTESIAN_POINT('',(-52.59,-17.236513973976,7.67740234410585));
#1157=CARTESIAN_POINT('',(-52.59,-17.0163933073538,8.49890385573607));
#1158=CARTESIAN_POINT('',(1.46581949502214E-15,-17.0163933073538,8.49890385573607));
#1159=CARTESIAN_POINT('',(-52.175,-17.0163933073538,8.49890385573607));
#1160=CARTESIAN_POINT('',(-52.175,-17.2217563571678,7.73247851983292));
#1161=CARTESIAN_POINT('',(-52.175,-16.4692399835322,10.5409078597684));
#1162=CARTESIAN_POINT('',(1.70217704417299E-15,-16.4692399835322,10.5409078597684));
#1163=CARTESIAN_POINT('',(-14.8645505482002,-16.4692399835322,10.5409078597684));
#1164=CARTESIAN_POINT('',(1.75330212189205E-15,-40.4455633923125,-78.9399492805026));
#1165=CARTESIAN_POINT('',(14.8645505482003,-16.4692399835322,10.5409078597684));
#1166=CARTESIAN_POINT('',(1.70217704417299E-15,-16.4692399835322,10.5409078597684));
#1167=CARTESIAN_POINT('',(52.175,-16.4692399835322,10.5409078597684));
#1168=CARTESIAN_POINT('',(52.175,-17.2217563571677,7.73247851983291));
#1169=CARTESIAN_POINT('',(52.175,-17.0163933073538,8.49890385573606));
#1170=CARTESIAN_POINT('',(1.46581949502214E-15,-17.0163933073538,8.49890385573607));
#1171=CARTESIAN_POINT('',(52.59,-17.0163933073538,8.49890385573606));
#1172=CARTESIAN_POINT('',(52.59,-17.236513973976,7.67740234410583));
#1173=CARTESIAN_POINT('',(-61.0499999999999,-7.7416382007018,30.6523179823912));
#1174=CARTESIAN_POINT('',(61.0499999999999,-7.74163820070179,30.6523179823912));
#1175=CARTESIAN_POINT('',(-61.0499999999999,-12.5229710408327,31.9334722556487));
#1176=CARTESIAN_POINT('',(61.0499999999999,-12.5229710408327,31.9334722556486));
#1177=CARTESIAN_POINT('',(-2.34103742234053E-14,-12.3056377299176,31.8752379705006));
#1178=CARTESIAN_POINT('',(55.5,-12.3056377299176,31.8752379705006));
#1179=CARTESIAN_POINT('',(53.6,-12.3056377299176,31.8752379705006));
#1180=CARTESIAN_POINT('',(55.5,-10.856748990484,31.4870094028468));
#1181=CARTESIAN_POINT('',(-55.5,-12.3056377299176,31.8752379705006));
#1182=CARTESIAN_POINT('',(-55.5,-12.3056377299176,31.8752379705006));
#1183=CARTESIAN_POINT('',(-2.34103742234053E-14,-12.3056377299176,31.8752379705006));
#1184=CARTESIAN_POINT('',(-53.7,-12.3056377299176,31.8752379705006));
#1185=CARTESIAN_POINT('',(-53.7,-10.856748990484,31.4870094028468));
#1186=CARTESIAN_POINT('',(53.6,-10.856748990484,31.4870094028468));
#1187=CARTESIAN_POINT('',(-57.5,-9.10718120844078,-4.95276734265758));
#1188=CARTESIAN_POINT('',(-57.5,-21.8789165210172,-1.53059117970868));
#1189=CARTESIAN_POINT('',(-57.5,-0.22849739381686,28.1829317578584));
#1190=CARTESIAN_POINT('',(-57.5,-13.0002327063933,31.6051079208073));
#1191=CARTESIAN_POINT('',(-57.5,-8.47660960182188,13.8068503074806));
#1192=CARTESIAN_POINT('',(-57.5,-8.47660960182188,-0.000314297038617618));
#1193=CARTESIAN_POINT('',(-57.5,-15.1272632346757,-0.000314297038617835));
#1194=CARTESIAN_POINT('',(-57.5,-20.8466662183008,-0.000314297038617618));
#1195=CARTESIAN_POINT('',(-57.5,-20.3030217453004,2.02859449745293));
#1196=CARTESIAN_POINT('',(-57.5,-12.8232758201227,29.9433863179225));
#1197=CARTESIAN_POINT('',(-57.5,-8.47660960182188,28.7787006149611));
#1198=CARTESIAN_POINT('',(-0.0375000000000027,-17.8850175037285,4.96737647429509));
#1199=CARTESIAN_POINT('',(-0.0375000000000026,-19.4787951171055,5.39442789871426));
#1200=CARTESIAN_POINT('',(0.787499999999998,-18.2548548859978,3.58712457312771));
#1201=CARTESIAN_POINT('',(0.787499999999998,-19.8486324993748,4.01417599754688));
#1202=CARTESIAN_POINT('',(0.75,-19.7593772723,4.05750329194452));
#1203=CARTESIAN_POINT('',(0.75,-19.7593772723,4.05750329194453));
#1204=CARTESIAN_POINT('',(5.11654648335221E-16,-19.4231614702369,5.31227774755123));
#1205=CARTESIAN_POINT('',(0.75,-19.7593772723,4.05750329194453));
#1206=CARTESIAN_POINT('',(0.75,-18.3104885328663,3.66927472429074));
#1207=CARTESIAN_POINT('',(-4.76313972081441,-15.8390156087075,12.8929372467823));
#1208=CARTESIAN_POINT('',(2.93096273520098E-16,-17.9742727308034,4.92404917989745));
#1209=CARTESIAN_POINT('',(5.11654648335221E-16,-19.4231614702369,5.31227774755123));
#1210=CARTESIAN_POINT('',(-0.787499999999998,-18.2548548859978,3.58712457312771));
#1211=CARTESIAN_POINT('',(-0.787499999999998,-19.8486324993748,4.01417599754688));
#1212=CARTESIAN_POINT('',(0.0375000000000026,-17.8850175037285,4.96737647429509));
#1213=CARTESIAN_POINT('',(0.0375000000000028,-19.4787951171055,5.39442789871426));
#1214=CARTESIAN_POINT('',(4.76313972081442,-15.8390156087075,12.8929372467823));
#1215=CARTESIAN_POINT('',(-0.75,-18.3104885328663,3.66927472429074));
#1216=CARTESIAN_POINT('',(-0.75,-19.7593772723,4.05750329194453));
#1217=CARTESIAN_POINT('',(-0.75,-19.7593772723,4.05750329194453));
#1218=CARTESIAN_POINT('',(-0.75,-19.7593772723,4.05750329194452));
#1219=CARTESIAN_POINT('',(17.7425,-17.8850175037285,4.96737647429509));
#1220=CARTESIAN_POINT('',(17.7425,-19.4787951171055,5.39442789871426));
#1221=CARTESIAN_POINT('',(18.5675,-18.2548548859978,3.58712457312771));
#1222=CARTESIAN_POINT('',(18.5675,-19.8486324993748,4.01417599754688));
#1223=CARTESIAN_POINT('',(18.53,-19.7593772722999,4.05750329194452));
#1224=CARTESIAN_POINT('',(18.53,-19.7593772722999,4.05750329194452));
#1225=CARTESIAN_POINT('',(17.78,-19.4231614702369,5.31227774755123));
#1226=CARTESIAN_POINT('',(18.53,-19.7593772722999,4.05750329194452));
#1227=CARTESIAN_POINT('',(18.53,-18.3104885328663,3.66927472429074));
#1228=CARTESIAN_POINT('',(8.5718602791856,-13.8463766218141,20.3295671870114));
#1229=CARTESIAN_POINT('',(17.78,-17.9742727308034,4.92404917989745));
#1230=CARTESIAN_POINT('',(17.78,-19.4231614702369,5.31227774755123));
#1231=CARTESIAN_POINT('',(16.9925,-18.2548548859978,3.58712457312772));
#1232=CARTESIAN_POINT('',(16.9925,-19.8486324993748,4.01417599754688));
#1233=CARTESIAN_POINT('',(17.8175,-17.8850175037285,4.96737647429509));
#1234=CARTESIAN_POINT('',(17.8175,-19.4787951171055,5.39442789871426));
#1235=CARTESIAN_POINT('',(18.0981397208144,-17.8316545956011,5.45630730655316));
#1236=CARTESIAN_POINT('',(17.03,-18.3104885328663,3.66927472429074));
#1237=CARTESIAN_POINT('',(17.03,-19.7593772722999,4.05750329194452));
#1238=CARTESIAN_POINT('',(17.03,-19.7593772722999,4.05750329194452));
#1239=CARTESIAN_POINT('',(17.03,-19.7593772722999,4.05750329194452));
#1240=CARTESIAN_POINT('',(-52.9994999999999,-18.0544702679683,4.33497014866922));
#1241=CARTESIAN_POINT('',(-52.9994999999999,-19.6482478813453,4.76202157308838));
#1242=CARTESIAN_POINT('',(-52.5705,-18.2467857067483,3.61723916006229));
#1243=CARTESIAN_POINT('',(-52.5705,-19.8405633201253,4.04429058448145));
#1244=CARTESIAN_POINT('',(-52.98,-19.5845450552272,4.70998600885988));
#1245=CARTESIAN_POINT('',(-52.98,-19.5845450552272,4.70998600885988));
#1246=CARTESIAN_POINT('',(-52.59,-19.7593772723,4.05750329194453));
#1247=CARTESIAN_POINT('',(-52.59,-19.7593772723,4.05750329194453));
#1248=CARTESIAN_POINT('',(-52.59,-19.7593772723,4.05750329194453));
#1249=CARTESIAN_POINT('',(-35.5975,-17.8850175037285,4.96737647429511));
#1250=CARTESIAN_POINT('',(-35.5975,-19.4787951171055,5.39442789871427));
#1251=CARTESIAN_POINT('',(-34.7725,-18.2548548859978,3.58712457312772));
#1252=CARTESIAN_POINT('',(-34.7725,-19.8486324993748,4.01417599754688));
#1253=CARTESIAN_POINT('',(-34.81,-19.7593772723,4.05750329194453));
#1254=CARTESIAN_POINT('',(-34.81,-19.7593772723,4.05750329194453));
#1255=CARTESIAN_POINT('',(-35.56,-19.4231614702369,5.31227774755124));
#1256=CARTESIAN_POINT('',(-34.81,-19.7593772723,4.05750329194453));
#1257=CARTESIAN_POINT('',(-34.81,-18.3104885328664,3.66927472429075));
#1258=CARTESIAN_POINT('',(-31.4331397208144,-19.8242935824945,-1.98032263367592));
#1259=CARTESIAN_POINT('',(-35.56,-17.9742727308034,4.92404917989746));
#1260=CARTESIAN_POINT('',(-35.56,-19.4231614702369,5.31227774755124));
#1261=CARTESIAN_POINT('',(-36.3475,-18.2548548859978,3.58712457312772));
#1262=CARTESIAN_POINT('',(-36.3475,-19.8486324993748,4.01417599754688));
#1263=CARTESIAN_POINT('',(-35.5225,-17.8850175037285,4.96737647429511));
#1264=CARTESIAN_POINT('',(-35.5225,-19.4787951171055,5.39442789871427));
#1265=CARTESIAN_POINT('',(-21.9068602791856,-11.8537376349206,27.7661971272405));
#1266=CARTESIAN_POINT('',(-36.31,-18.3104885328664,3.66927472429075));
#1267=CARTESIAN_POINT('',(-36.31,-19.7593772723,4.05750329194453));
#1268=CARTESIAN_POINT('',(-36.31,-19.7593772723,4.05750329194453));
#1269=CARTESIAN_POINT('',(-36.31,-19.7593772723,4.05750329194453));
#1270=CARTESIAN_POINT('',(-17.8175,-17.8850175037285,4.9673764742951));
#1271=CARTESIAN_POINT('',(-17.8175,-19.4787951171055,5.39442789871427));
#1272=CARTESIAN_POINT('',(-16.9925,-18.2548548859978,3.58712457312771));
#1273=CARTESIAN_POINT('',(-16.9925,-19.8486324993748,4.01417599754688));
#1274=CARTESIAN_POINT('',(-17.03,-19.7593772723,4.05750329194453));
#1275=CARTESIAN_POINT('',(-17.03,-19.7593772723,4.05750329194453));
#1276=CARTESIAN_POINT('',(-17.78,-19.4231614702369,5.31227774755124));
#1277=CARTESIAN_POINT('',(-17.03,-19.7593772723,4.05750329194453));
#1278=CARTESIAN_POINT('',(-17.03,-18.3104885328663,3.66927472429074));
#1279=CARTESIAN_POINT('',(-18.0981397208144,-17.8316545956011,5.45630730655317));
#1280=CARTESIAN_POINT('',(-17.78,-17.9742727308034,4.92404917989746));
#1281=CARTESIAN_POINT('',(-17.78,-19.4231614702369,5.31227774755124));
#1282=CARTESIAN_POINT('',(-18.5675,-18.2548548859978,3.58712457312771));
#1283=CARTESIAN_POINT('',(-18.5675,-19.8486324993748,4.01417599754688));
#1284=CARTESIAN_POINT('',(-17.7425,-17.8850175037285,4.9673764742951));
#1285=CARTESIAN_POINT('',(-17.7425,-19.4787951171055,5.39442789871427));
#1286=CARTESIAN_POINT('',(-8.5718602791856,-13.8463766218141,20.3295671870114));
#1287=CARTESIAN_POINT('',(-18.53,-18.3104885328663,3.66927472429075));
#1288=CARTESIAN_POINT('',(-18.53,-19.7593772723,4.05750329194453));
#1289=CARTESIAN_POINT('',(-18.53,-19.7593772723,4.05750329194453));
#1290=CARTESIAN_POINT('',(-18.53,-19.7593772723,4.05750329194453));
#1291=CARTESIAN_POINT('',(35.5225,-17.8850175037285,4.96737647429509));
#1292=CARTESIAN_POINT('',(35.5225,-19.4787951171055,5.39442789871426));
#1293=CARTESIAN_POINT('',(36.3475,-18.2548548859978,3.58712457312771));
#1294=CARTESIAN_POINT('',(36.3475,-19.8486324993748,4.01417599754688));
#1295=CARTESIAN_POINT('',(36.31,-19.7593772722999,4.05750329194452));
#1296=CARTESIAN_POINT('',(36.31,-19.7593772722999,4.05750329194452));
#1297=CARTESIAN_POINT('',(35.56,-19.4231614702369,5.31227774755123));
#1298=CARTESIAN_POINT('',(36.31,-19.7593772722999,4.05750329194452));
#1299=CARTESIAN_POINT('',(36.31,-18.3104885328663,3.66927472429074));
#1300=CARTESIAN_POINT('',(21.9068602791857,-11.8537376349206,27.7661971272405));
#1301=CARTESIAN_POINT('',(35.56,-17.9742727308034,4.92404917989745));
#1302=CARTESIAN_POINT('',(35.56,-19.4231614702369,5.31227774755123));
#1303=CARTESIAN_POINT('',(34.7725,-18.2548548859978,3.58712457312771));
#1304=CARTESIAN_POINT('',(34.7725,-19.8486324993748,4.01417599754687));
#1305=CARTESIAN_POINT('',(35.5975,-17.8850175037285,4.96737647429509));
#1306=CARTESIAN_POINT('',(35.5975,-19.4787951171055,5.39442789871426));
#1307=CARTESIAN_POINT('',(31.4331397208144,-19.8242935824945,-1.98032263367597));
#1308=CARTESIAN_POINT('',(34.81,-18.3104885328663,3.66927472429073));
#1309=CARTESIAN_POINT('',(34.81,-19.7593772722999,4.05750329194452));
#1310=CARTESIAN_POINT('',(34.81,-19.7593772722999,4.05750329194452));
#1311=CARTESIAN_POINT('',(34.81,-19.7593772722999,4.05750329194452));
#1312=CARTESIAN_POINT('',(52.5698205080757,-18.2470903146447,3.61610234791638));
#1313=CARTESIAN_POINT('',(52.5698205080757,-19.8408679280217,4.04315377233554));
#1314=CARTESIAN_POINT('',(53.0137693304105,-18.0480735021431,4.35884320373297));
#1315=CARTESIAN_POINT('',(53.0137693304105,-19.6418511155201,4.78589462815213));
#1316=CARTESIAN_POINT('',(52.59,-19.7593772722999,4.05750329194452));
#1317=CARTESIAN_POINT('',(52.9935898384862,-19.5784528972985,4.73272225177779));
#1318=CARTESIAN_POINT('',(52.59,-19.7593772722999,4.05750329194452));
#1319=CARTESIAN_POINT('',(52.9935898384862,-19.5784528972985,4.73272225177779));
#1320=CARTESIAN_POINT('',(52.59,-19.7593772722999,4.05750329194452));
#1321=CARTESIAN_POINT('',(-63.25,-21.27371764272,-1.59409191041559));
#1322=CARTESIAN_POINT('',(-63.25,-11.8785863054985,33.4690155838776));
#1323=CARTESIAN_POINT('',(63.25,-21.27371764272,-1.59409191041561));
#1324=CARTESIAN_POINT('',(63.25,-11.8785863054985,33.4690155838776));
#1325=CARTESIAN_POINT('',(-53.34,-19.5845450552272,4.70998600885988));
#1326=CARTESIAN_POINT('',(-53.7,-19.5845450552272,4.70998600885988));
#1327=CARTESIAN_POINT('',(-53.7,-16.5761519741093,15.937461836731));
#1328=CARTESIAN_POINT('',(-55.5,-12.8232758201227,29.9433863179225));
#1329=CARTESIAN_POINT('',(-3.40387943950908E-14,-20.8466662183009,-0.000314297038668141));
#1330=CARTESIAN_POINT('',(55.5,-12.8232758201227,29.9433863179224));
#1331=CARTESIAN_POINT('',(53.6,-16.5761519741093,15.9374618367309));
#1332=CARTESIAN_POINT('',(53.6,-19.5784528972985,4.73272225177779));
#1333=CARTESIAN_POINT('',(53.2967949192431,-19.5784528972985,4.73272225177779));
#1334=CARTESIAN_POINT('',(-3.35691107811804E-14,-19.7593772723,4.05750329194453));
#1335=CARTESIAN_POINT('',(-3.35691107811804E-14,-19.7593772723,4.05750329194453));
#1336=CARTESIAN_POINT('',(-3.35691107811804E-14,-19.7593772723,4.05750329194453));
#1337=CARTESIAN_POINT('',(-3.35691107811804E-14,-19.7593772723,4.05750329194453));
#1338=CARTESIAN_POINT('',(-3.35691107811804E-14,-19.7593772723,4.05750329194453));
#1339=CARTESIAN_POINT('',(-3.35691107811804E-14,-19.7593772723,4.05750329194453));
#1340=CARTESIAN_POINT('',(-39.9509,-18.3274001877102,3.60615956917373));
#1341=CARTESIAN_POINT('',(-39.9509,-17.9553437811472,4.99469298174813));
#1342=CARTESIAN_POINT('',(39.9509,-18.3274001877101,3.60615956917372));
#1343=CARTESIAN_POINT('',(39.9509,-17.9553437811472,4.99469298174811));
#1344=CARTESIAN_POINT('',(9.06800363540591E-16,-18.3104885328663,3.66927472429074));
#1345=CARTESIAN_POINT('',(17.021,-18.3104885328664,3.66927472429075));
#1346=CARTESIAN_POINT('',(17.021,-17.972255435991,4.93157782663109));
#1347=CARTESIAN_POINT('',(18.539,-18.3104885328664,3.66927472429075));
#1348=CARTESIAN_POINT('',(18.539,-17.972255435991,4.93157782663109));
#1349=CARTESIAN_POINT('',(9.06800363540591E-16,-18.3104885328663,3.66927472429074));
#1350=CARTESIAN_POINT('',(-36.319,-18.3104885328664,3.66927472429074));
#1351=CARTESIAN_POINT('',(-36.319,-17.972255435991,4.9315778266311));
#1352=CARTESIAN_POINT('',(-34.801,-18.3104885328664,3.66927472429074));
#1353=CARTESIAN_POINT('',(-34.801,-17.972255435991,4.9315778266311));
#1354=CARTESIAN_POINT('',(9.06800363540591E-16,-18.3104885328663,3.66927472429074));
#1355=CARTESIAN_POINT('',(-18.539,-18.3104885328664,3.66927472429075));
#1356=CARTESIAN_POINT('',(-18.539,-17.972255435991,4.9315778266311));
#1357=CARTESIAN_POINT('',(-17.021,-18.3104885328664,3.66927472429075));
#1358=CARTESIAN_POINT('',(-17.021,-17.972255435991,4.9315778266311));
#1359=CARTESIAN_POINT('',(9.06800363540591E-16,-18.3104885328663,3.66927472429074));
#1360=CARTESIAN_POINT('',(-52.59,-15.3325269413314,2.61251327564553));
#1361=CARTESIAN_POINT('',(-52.59,-18.5200821680854,3.46661612448386));
#1362=CARTESIAN_POINT('',(-52.59,-13.9090221932676,7.92510532023539));
#1363=CARTESIAN_POINT('',(-52.59,-17.0965774200215,8.77920816907372));
#1364=CARTESIAN_POINT('',(-52.59,-14.1186158284866,7.72244672042851));
#1365=CARTESIAN_POINT('',(-52.59,-15.4127110539991,2.89281758898319));
#1366=CARTESIAN_POINT('',(-57.849,-15.1953777430841,2.83458330383512));
#1367=CARTESIAN_POINT('',(-57.849,-19.976710583215,4.11573757709261));
#1368=CARTESIAN_POINT('',(57.849,-15.1953777430841,2.8345833038351));
#1369=CARTESIAN_POINT('',(57.849,-19.976710583215,4.11573757709259));
#1370=CARTESIAN_POINT('',(9.06800363540591E-16,-18.3104885328663,3.66927472429074));
#1371=CARTESIAN_POINT('',(52.59,-15.4127110539991,2.89281758898318));
#1372=CARTESIAN_POINT('',(52.59,-15.3325269413314,2.61251327564553));
#1373=CARTESIAN_POINT('',(52.59,-18.5200821680853,3.46661612448385));
#1374=CARTESIAN_POINT('',(52.59,-13.9090221932676,7.92510532023539));
#1375=CARTESIAN_POINT('',(52.59,-17.0965774200215,8.7792081690737));
#1376=CARTESIAN_POINT('',(52.59,-14.1186158284866,7.7224467204285));
#1377=CARTESIAN_POINT('',(23.264523859823,-13.9737269545432,7.68362386366312));
#1378=CARTESIAN_POINT('',(23.264523859823,-17.1612821812971,8.53772671250144));
#1379=CARTESIAN_POINT('',(53.9864512447703,-13.9737269545432,7.68362386366312));
#1380=CARTESIAN_POINT('',(53.9864512447703,-17.1612821812971,8.53772671250143));
#1381=CARTESIAN_POINT('',(52.175,-14.1186158284866,7.7224467204285));
#1382=CARTESIAN_POINT('',(52.175,-16.0504674810647,8.24008481063354));
#1383=CARTESIAN_POINT('',(38.6254875522967,-16.0504674810647,8.24008481063354));
#1384=CARTESIAN_POINT('',(24.6609751045933,-16.0504674810647,8.24008481063355));
#1385=CARTESIAN_POINT('',(24.6609751045933,-14.1186158284866,7.72244672042851));
#1386=CARTESIAN_POINT('',(41.1865479882572,-15.5847263131606,1.6712924063419));
#1387=CARTESIAN_POINT('',(41.1865479882572,-18.7722815399146,2.52539525518022));
#1388=CARTESIAN_POINT('',(14.7253132594438,-12.238620856623,14.1591279776237));
#1389=CARTESIAN_POINT('',(14.7253132594438,-15.426176083377,15.013230826462));
#1390=CARTESIAN_POINT('',(-14.7253132594438,-12.2386208566231,14.1591279776237));
#1391=CARTESIAN_POINT('',(-14.7253132594438,-15.426176083377,15.013230826462));
#1392=CARTESIAN_POINT('',(-41.1865479882572,-15.5847263131607,1.6712924063419));
#1393=CARTESIAN_POINT('',(-41.1865479882572,-18.7722815399146,2.52539525518022));
#1394=CARTESIAN_POINT('',(-14.8645505482002,-13.571462504665,9.76445072446083));
#1395=CARTESIAN_POINT('',(-14.8645505482002,-15.5033141572431,10.2820888146659));
#1396=CARTESIAN_POINT('',(1.60759653868197E-15,-39.4796375660233,-79.1987683256051));
#1397=CARTESIAN_POINT('',(-24.6609751045933,-16.0504674810647,8.24008481063355));
#1398=CARTESIAN_POINT('',(-24.6609751045933,-14.1186158284866,7.72244672042851));
#1399=CARTESIAN_POINT('',(1.60759653868197E-15,-39.4796375660233,-79.1987683256051));
#1400=CARTESIAN_POINT('',(14.8645505482003,-15.5033141572431,10.2820888146659));
#1401=CARTESIAN_POINT('',(14.8645505482003,-13.571462504665,9.76445072446083));
#1402=CARTESIAN_POINT('',(-53.9864512447703,-13.9737269545432,7.68362386366313));
#1403=CARTESIAN_POINT('',(-53.9864512447703,-17.1612821812972,8.53772671250146));
#1404=CARTESIAN_POINT('',(-23.264523859823,-13.9737269545432,7.68362386366313));
#1405=CARTESIAN_POINT('',(-23.264523859823,-17.1612821812972,8.53772671250146));
#1406=CARTESIAN_POINT('',(-38.6254875522967,-16.0504674810647,8.24008481063355));
#1407=CARTESIAN_POINT('',(-52.175,-16.0504674810647,8.24008481063355));
#1408=CARTESIAN_POINT('',(-52.175,-14.1186158284866,7.72244672042851));
#1409=CARTESIAN_POINT('',(34.801,-18.3104885328664,3.66927472429074));
#1410=CARTESIAN_POINT('',(34.801,-17.972255435991,4.93157782663109));
#1411=CARTESIAN_POINT('',(36.319,-18.3104885328664,3.66927472429074));
#1412=CARTESIAN_POINT('',(36.319,-17.972255435991,4.93157782663109));
#1413=CARTESIAN_POINT('',(-52.175,-16.0504674810647,8.24008481063355));
#1414=CARTESIAN_POINT('',(-52.175,-15.5033141572431,10.2820888146659));
#1415=CARTESIAN_POINT('',(-14.6406878514894,-16.0504674810647,8.24008481063355));
#1416=CARTESIAN_POINT('',(-14.6406878514894,-15.5033141572431,10.2820888146659));
#1417=CARTESIAN_POINT('',(1.55647146096291E-15,-15.5033141572431,10.2820888146659));
#1418=CARTESIAN_POINT('',(-52.175,-15.5033141572431,10.2820888146659));
#1419=CARTESIAN_POINT('',(-52.175,-16.2558305308787,7.4736594747304));
#1420=CARTESIAN_POINT('',(-52.175,-15.4276601997376,10.3712480626124));
#1421=CARTESIAN_POINT('',(-52.175,-16.4901786086556,10.6559490122251));
#1422=CARTESIAN_POINT('',(-52.175,-16.0295288559413,8.1250436581768));
#1423=CARTESIAN_POINT('',(-52.175,-17.0920472648593,8.40974460778958));
#1424=CARTESIAN_POINT('',(-52.175,-15.5033141572431,10.2820888146659));
#1425=CARTESIAN_POINT('',(-52.175,-15.5033141572431,10.2820888146659));
#1426=CARTESIAN_POINT('',(-52.175,-16.4692399835322,10.5409078597684));
#1427=CARTESIAN_POINT('',(-14.8645505482002,-15.5033141572431,10.2820888146659));
#1428=CARTESIAN_POINT('',(-14.8645505482002,-16.4692399835322,10.5409078597684));
#1429=CARTESIAN_POINT('',(52.175,-15.4276601997376,10.3712480626123));
#1430=CARTESIAN_POINT('',(52.175,-16.4901786086556,10.6559490122251));
#1431=CARTESIAN_POINT('',(52.175,-16.0295288559413,8.12504365817679));
#1432=CARTESIAN_POINT('',(52.175,-17.0920472648593,8.40974460778957));
#1433=CARTESIAN_POINT('',(52.175,-15.5033141572431,10.2820888146659));
#1434=CARTESIAN_POINT('',(52.175,-15.5033141572431,10.2820888146659));
#1435=CARTESIAN_POINT('',(52.175,-16.2558305308787,7.47365947473039));
#1436=CARTESIAN_POINT('',(14.8645505482003,-15.5033141572431,10.2820888146658));
#1437=CARTESIAN_POINT('',(14.8645505482003,-16.4692399835322,10.5409078597684));
#1438=CARTESIAN_POINT('',(52.175,-15.5033141572431,10.2820888146658));
#1439=CARTESIAN_POINT('',(52.175,-16.4692399835322,10.5409078597684));
#1440=CARTESIAN_POINT('',(1.55647146096291E-15,-15.5033141572431,10.2820888146659));
#1441=CARTESIAN_POINT('',(14.6406878514895,-16.0504674810647,8.24008481063354));
#1442=CARTESIAN_POINT('',(14.6406878514895,-15.5033141572431,10.2820888146659));
#1443=CARTESIAN_POINT('',(52.175,-16.0504674810647,8.24008481063354));
#1444=CARTESIAN_POINT('',(52.175,-15.5033141572431,10.2820888146659));
#1445=CARTESIAN_POINT('',(-53.7,-18.4271572450874,2.94408341474138));
#1446=CARTESIAN_POINT('',(-53.7,-20.0209348584644,3.37113483916054));
#1447=CARTESIAN_POINT('',(-53.7,-10.4203591872469,32.8258605725462));
#1448=CARTESIAN_POINT('',(-53.7,-12.0141368006238,33.2529119969653));
#1449=CARTESIAN_POINT('',(-53.7,-19.5845450552272,4.70998600885988));
#1450=CARTESIAN_POINT('',(53.6,-10.4206637951433,32.8247237604002));
#1451=CARTESIAN_POINT('',(53.6,-12.0144414085203,33.2517751848194));
#1452=CARTESIAN_POINT('',(53.6,-18.4207604792622,2.96795646980518));
#1453=CARTESIAN_POINT('',(53.6,-20.0145380926392,3.39500789422435));
#1454=CARTESIAN_POINT('',(53.6,-19.5784528972985,4.73272225177779));
#1455=CARTESIAN_POINT('',(-55.1252373708286,-7.75080699440688,30.6180995784397));
#1456=CARTESIAN_POINT('',(-55.1252373708286,-12.5321398345378,31.8992538516972));
#1457=CARTESIAN_POINT('',(-56.6551185842569,-7.67527312790773,30.8999958059067));
#1458=CARTESIAN_POINT('',(-56.6551185842569,-12.4566059680386,32.1811500791641));
#1459=CARTESIAN_POINT('',(-57.7564149511013,-7.96030960194928,29.8362252027733));
#1460=CARTESIAN_POINT('',(-57.7564149511013,-12.7416424420802,31.1173794760308));
#1461=CARTESIAN_POINT('',(-57.4645745014574,-8.3562719967291,28.3584734275684));
#1462=CARTESIAN_POINT('',(-57.4645745014574,-13.13760483686,29.6396277008259));
#1463=CARTESIAN_POINT('',(55.1252373708286,-12.5321398345378,31.8992538516972));
#1464=CARTESIAN_POINT('',(55.1252373708286,-7.75080699440687,30.6180995784397));
#1465=CARTESIAN_POINT('',(56.6551185842569,-12.4566059680386,32.1811500791641));
#1466=CARTESIAN_POINT('',(56.6551185842569,-7.67527312790772,30.8999958059067));
#1467=CARTESIAN_POINT('',(57.7564149511014,-12.7416424420802,31.1173794760308));
#1468=CARTESIAN_POINT('',(57.7564149511014,-7.96030960194928,29.8362252027733));
#1469=CARTESIAN_POINT('',(57.4645745014574,-13.13760483686,29.6396277008258));
#1470=CARTESIAN_POINT('',(57.4645745014574,-8.3562719967291,28.3584734275684));
#1471=CARTESIAN_POINT('',(57.65,-8.47660960182188,30.2176513605611));
#1472=CARTESIAN_POINT('',(54.35,-8.47660960182188,30.2176513605611));
#1473=CARTESIAN_POINT('',(57.65,-8.47660960182188,-1.43926504263865));
#1474=CARTESIAN_POINT('',(54.35,-8.47660960182188,-1.43926504263865));
#1475=CARTESIAN_POINT('',(57.5,-8.47660960182188,-0.000314297038657733));
#1476=CARTESIAN_POINT('',(54.5,-8.47660960182188,-0.000314297038656649));
#1477=CARTESIAN_POINT('',(54.5,-8.47660960182188,14.3891931589612));
#1478=CARTESIAN_POINT('',(54.5,-8.08873051744881,30.3989591545067));
#1479=CARTESIAN_POINT('',(54.5,-8.08873051744881,-1.44789874711225));
#1480=CARTESIAN_POINT('',(54.5,-16.6220703736563,30.3989591545067));
#1481=CARTESIAN_POINT('',(54.5,-16.6220703736563,-1.44789874711225));
#1482=CARTESIAN_POINT('',(54.5,-14.6616379100614,-0.000314297038655998));
#1483=CARTESIAN_POINT('',(-54.35,-8.47660960182188,30.2176513605611));
#1484=CARTESIAN_POINT('',(-57.65,-8.47660960182188,30.2176513605611));
#1485=CARTESIAN_POINT('',(-54.35,-8.47660960182188,-1.43926504263861));
#1486=CARTESIAN_POINT('',(-57.65,-8.47660960182188,-1.4392650426386));
#1487=CARTESIAN_POINT('',(57.5,-8.47660960182188,-0.000314297038657733));
#1488=CARTESIAN_POINT('',(-54.5,-8.47660960182188,-0.000314297038617835));
#1489=CARTESIAN_POINT('',(-54.5,-8.47660960182188,14.3891931589612));
#1490=CARTESIAN_POINT('',(-54.5,-8.08873051744881,-1.44789874711221));
#1491=CARTESIAN_POINT('',(-54.5,-8.08873051744881,30.3989591545067));
#1492=CARTESIAN_POINT('',(-54.5,-16.6220703736563,-1.44789874711221));
#1493=CARTESIAN_POINT('',(-54.5,-16.6220703736563,30.3989591545067));
#1494=CARTESIAN_POINT('',(-54.5,-14.6616379100614,-0.000314297038617835));
#1495=CARTESIAN_POINT('',(-63.25,-21.4651690491248,-0.000314297038615831));
#1496=CARTESIAN_POINT('',(63.25,-21.4651690491247,-0.000314297038659956));
#1497=CARTESIAN_POINT('',(-63.25,-7.85810677099793,-0.000314297038615831));
#1498=CARTESIAN_POINT('',(63.25,-7.85810677099793,-0.000314297038659956));
#1499=CARTESIAN_POINT('',(52.9632693304105,-18.0571197208932,4.32508225574132));
#1500=CARTESIAN_POINT('',(52.9632693304105,-19.6508973342701,4.75213368016048));
#1501=CARTESIAN_POINT('',(53.6303205080757,-18.0571197208932,4.32508225574132));
#1502=CARTESIAN_POINT('',(53.6303205080757,-19.6508973342701,4.75213368016048));
#1503=CARTESIAN_POINT('',(-53.736,-18.063211878822,4.30234601282341));
#1504=CARTESIAN_POINT('',(-53.736,-19.6569894921989,4.72939743724257));
#1505=CARTESIAN_POINT('',(-52.944,-18.063211878822,4.30234601282341));
#1506=CARTESIAN_POINT('',(-52.944,-19.6569894921989,4.72939743724257));
#1507=MECHANICAL_DESIGN_GEOMETRIC_PRESENTATION_REPRESENTATION('',(#932),
#1508);
#1508=(
GEOMETRIC_REPRESENTATION_CONTEXT(3)
GLOBAL_UNCERTAINTY_ASSIGNED_CONTEXT((#1509))
GLOBAL_UNIT_ASSIGNED_CONTEXT((#1512,#1511,#1510))
REPRESENTATION_CONTEXT('Part 1','TOP_LEVEL_ASSEMBLY_PART')
);
#1509=UNCERTAINTY_MEASURE_WITH_UNIT(LENGTH_MEASURE(1.E-5),#1512,
'DISTANCE_ACCURACY_VALUE','Maximum Tolerance applied to model');
#1510=(
NAMED_UNIT(*)
SI_UNIT($,.STERADIAN.)
SOLID_ANGLE_UNIT()
);
#1511=(
NAMED_UNIT(*)
PLANE_ANGLE_UNIT()
SI_UNIT($,.RADIAN.)
);
#1512=(
LENGTH_UNIT()
NAMED_UNIT(*)
SI_UNIT(.MILLI.,.METRE.)
);
#1513=PRODUCT_DEFINITION_SHAPE('','',#1514);
#1514=PRODUCT_DEFINITION('','',#1516,#1515);
#1515=PRODUCT_DEFINITION_CONTEXT('',#1522,'design');
#1516=PRODUCT_DEFINITION_FORMATION_WITH_SPECIFIED_SOURCE('','',#1518,
 .NOT_KNOWN.);
#1517=PRODUCT_RELATED_PRODUCT_CATEGORY('','',(#1518));
#1518=PRODUCT('Part 1','Part 1','Part 1',(#1520));
#1519=PRODUCT_CATEGORY('','');
#1520=PRODUCT_CONTEXT('',#1522,'mechanical');
#1521=APPLICATION_PROTOCOL_DEFINITION('international standard',
'ap242_managed_model_based_3d_engineering',2011,#1522);
#1522=APPLICATION_CONTEXT('managed model based 3d engineering');
ENDSEC;
END-ISO-10303-21;
